<svg width="575" height="400" viewBox="0 0 575 400" fill="none" xmlns="http://www.w3.org/2000/svg">
<g clip-path="url(#clip0_40_7192)">
<path d="M57.65 116.67H0C0 116.67 8.67 67.85 65.88 44.95C52.66 77.81 57.65 116.67 57.65 116.67V116.67Z" fill="#D4E3BE"/>
<path d="M266.66 350V400H0C0 229.06 133.33 216.63 133.33 216.63C133.33 216.63 133.43 216.61 133.64 216.58C133.59 216.61 133.55 216.64 133.5 216.67C52.69 266.56 57.75 350 57.75 350H266.66Z" fill="#D4E3BE"/>
<path d="M199.98 42.99C182.81 37.08 161.01 33.33 133.33 33.33C105.65 33.33 83.4199 37.92 65.8799 44.94C75.5499 20.86 94.9999 0 133.33 0C171.66 0 190.04 19.74 199.98 42.99V42.99Z" fill="#D4E3BE"/>
<path d="M133.65 216.58C213.2 167.38 209.93 100 209.93 100C210.04 85.16 208.45 62.8 199.98 42.99C263.76 64.94 263.73 116.67 263.73 116.67C266.77 194.24 140.81 215.44 133.65 216.58Z" fill="#D4E3BE"/>
<path d="M365.98 116.67H308.33C308.33 116.67 317 67.85 374.21 44.95C360.99 77.81 365.98 116.67 365.98 116.67Z" fill="#D4E3BE"/>
<path d="M574.99 350V400H308.33C308.33 229.06 441.66 216.63 441.66 216.63C441.66 216.63 441.76 216.61 441.97 216.58C441.92 216.61 441.88 216.64 441.83 216.67C361.02 266.56 366.08 350 366.08 350H574.99Z" fill="#D4E3BE"/>
<path d="M508.31 42.99C491.14 37.08 469.34 33.33 441.66 33.33C413.98 33.33 391.75 37.92 374.21 44.94C383.88 20.86 403.33 0 441.66 0C479.99 0 498.37 19.74 508.31 42.99V42.99Z" fill="#D4E3BE"/>
<path d="M441.98 216.58C521.53 167.38 518.26 100 518.26 100C518.37 85.16 516.78 62.8 508.31 42.99C572.09 64.94 572.06 116.67 572.06 116.67C575.1 194.24 449.14 215.44 441.98 216.58V216.58Z" fill="#D4E3BE"/>
</g>
<defs>
<clipPath id="clip0_40_7192">
<rect width="574.99" height="400" fill="white"/>
</clipPath>
</defs>
</svg>
