<?xml version="1.0" encoding="UTF-8"?>
<svg id="Layer_2" data-name="Layer 2" xmlns="http://www.w3.org/2000/svg" width="303.97" height="464.85" viewBox="0 0 303.97 464.85">
  <defs>
    <style>
      .cls-1 {
        fill: #d3e2bd;
      }
    </style>
  </defs>
  <g id="Layer_1-2" data-name="Layer 1">
    <g>
      <path class="cls-1" d="M173.55,455.92l38.25-38.25h0l89.87-89.88c3.07-3.07,3.07-8.05,0-11.13l-48.68-48.68c-3.07-3.07-8.05-3.07-11.13,0l-48.7,48.7v-61.36c0-23.45-10.29-45.73-28.15-60.93l-3.41-2.91c-2.77-2.36-6.19-3.54-9.61-3.54s-6.84,1.18-9.61,3.54l-3.41,2.91c-17.86,15.2-28.15,37.48-28.15,60.93v61.36l-48.7-48.7c-3.07-3.07-8.05-3.07-11.13,0L2.3,316.66c-3.07,3.07-3.07,8.05,0,11.13l89.87,89.87h0l38.26,38.26c11.91,11.91,31.21,11.9,43.12,0Z"/>
      <path class="cls-1" d="M165.01,181.49c17.86-15.2,28.15-37.48,28.15-60.93V0H110.81V120.56c0,23.45,10.29,45.73,28.15,60.93l3.41,2.91c2.77,2.36,6.19,3.54,9.61,3.54s6.84-1.18,9.61-3.54l3.41-2.91Z"/>
    </g>
  </g>
</svg>