<svg width="123" height="54" viewBox="0 0 123 54" fill="none" xmlns="http://www.w3.org/2000/svg">
<path fill-rule="evenodd" clip-rule="evenodd" d="M6.30773 0.663541C7.89987 0.8622 8.57217 1.09572 9.57531 1.79854C10.6701 2.56564 11.5273 3.74176 11.9602 5.07059C12.4183 6.47703 12.3495 8.19821 11.7789 9.60533C11.1939 11.0479 9.92681 12.3747 8.54497 12.9918C7.20737 13.589 5.69016 13.6552 4.26752 13.1783C2.72972 12.6628 1.34749 11.3877 0.651807 9.84266C0.314881 9.09438 0.180811 8.52947 0.0352759 7.24543C0.0225812 7.13329 0.0078132 16.5543 0.00250217 28.181C-0.00611206 46.9758 0.00379725 49.3648 0.0920769 49.7204C0.382046 50.8887 1.34082 51.8832 2.45251 52.1691C2.85284 52.2721 3.40882 52.2799 8.35766 52.2523C13.7301 52.2224 14.4082 52.198 16.5088 51.9591C21.3306 51.4107 24.906 49.9675 28.5144 47.113C33.3359 43.299 36.3419 38.4071 37.5186 32.46C38.1537 29.2501 38.2508 25.2947 37.7781 21.8916C36.8915 15.5092 34.071 10.2867 29.333 6.25424C27.2728 4.50084 25.114 3.24685 22.5632 2.32193C19.9703 1.38178 17.3691 0.911473 13.5294 0.688619C12.4606 0.626568 5.82676 0.603529 6.30773 0.663541Z" fill="white"/>
<path fill-rule="evenodd" clip-rule="evenodd" d="M53.6432 0.124528L53.5262 0.24726V6.62848V13.0097L53.6432 13.1324C53.7946 13.2914 54.004 13.2922 54.1787 13.1345L54.3124 13.0138V6.62848V0.243159L54.1787 0.122427C54.004 -0.0352638 53.7946 -0.0344636 53.6432 0.124528ZM57.5618 0.103072C57.4943 0.158787 57.4258 0.24826 57.4096 0.301824C57.3853 0.382195 58.4244 4.3984 60.5344 12.38C60.7291 13.1164 60.8092 13.2552 61.0395 13.2552C61.1881 13.2552 61.3255 13.1784 61.3849 13.0621C61.4103 13.0122 61.9668 10.9365 62.6214 8.44956C63.2761 5.96255 64.017 3.14932 64.2678 2.19792C64.5187 1.24652 64.7239 0.418405 64.7239 0.357689C64.7239 0.196897 64.5175 0.00174584 64.3475 0.00174584C64.267 0.00174584 64.1531 0.0506586 64.0855 0.114275C63.9574 0.234757 63.8344 0.684475 61.9075 8.07886C61.4631 9.7843 61.0923 11.2022 61.0837 11.2297C61.0586 11.3093 60.8731 10.636 59.988 7.25364C58.3643 1.04857 58.1288 0.181443 58.0423 0.0906691C57.9297 -0.0275618 57.7133 -0.0220104 57.5618 0.103072ZM67.9437 0.118576L67.8211 0.24726V6.64758V13.0479L67.9467 13.1515C68.1166 13.2919 68.3219 13.2843 68.4665 13.1324L68.5835 13.0097V6.63628C68.5835 0.640513 68.5786 0.256562 68.5001 0.155786C68.4543 0.0969207 68.3379 0.0354546 68.2415 0.0193004C68.0956 -0.005256 68.0459 0.0113484 67.9437 0.118576ZM74.23 0.0760153C72.9274 0.378294 72.0177 1.58101 72.015 3.00453C72.0139 3.58918 72.1995 4.2163 72.5084 4.67232C72.5905 4.79335 73.4389 5.73915 74.3939 6.77402C75.3488 7.80894 76.209 8.77344 76.3053 8.91738C76.5704 9.31363 76.6605 9.64377 76.6584 10.212C76.6567 10.6768 76.6492 10.7103 76.456 11.1196C76.148 11.7719 75.6428 12.2153 75.0151 12.3843C74.2044 12.6025 73.2389 12.2224 72.7784 11.5038C72.6876 11.3621 72.552 11.2129 72.4771 11.1722C72.2206 11.033 71.919 11.2062 71.919 11.4929C71.919 11.8452 72.5289 12.556 73.1026 12.8725C74.6524 13.7272 76.4626 13.0905 77.1845 11.4366C77.4677 10.7879 77.5246 10.0914 77.3523 9.384C77.1814 8.68282 77.0507 8.49342 75.8025 7.13791C73.3291 4.45191 73.1386 4.2346 73.0047 3.94553C72.7687 3.43599 72.725 3.03484 72.8497 2.52541C72.9637 2.05968 73.151 1.71965 73.4577 1.42167C74.144 0.754793 74.9149 0.638662 75.7592 1.07503C76.0808 1.24127 76.2201 1.3711 76.6654 1.91975C76.8487 2.14551 77.0553 2.16721 77.2341 1.97951C77.4213 1.78306 77.3924 1.56981 77.1288 1.20161C76.4729 0.28587 75.2957 -0.171249 74.23 0.0760153ZM80.8512 0.124528L80.7342 0.24726V6.62848V13.0097L80.8512 13.1324C81.0026 13.2914 81.2121 13.2922 81.3867 13.1345L81.5205 13.0138V6.62848V0.243159L81.3867 0.122427C81.2121 -0.0352638 81.0026 -0.0344636 80.8512 0.124528ZM87.3344 0.0605112C87.2036 0.086668 86.9162 0.196897 86.6955 0.305425C86.1621 0.567794 85.6378 1.11024 85.3885 1.65783C85.0708 2.35546 85.0704 2.36276 85.0704 6.62848C85.0704 10.8976 85.0705 10.8998 85.3906 11.6048C85.6386 12.1512 86.1597 12.6883 86.6973 12.9517C87.5312 13.3602 88.3275 13.3602 89.1614 12.9517C89.9024 12.5886 90.4967 11.8172 90.6998 10.9546C90.7517 10.7342 90.7645 9.87473 90.7645 6.62848C90.7645 3.38223 90.7517 2.52276 90.6998 2.30235C90.498 1.44532 89.8986 0.66652 89.1639 0.306476C88.5696 0.0152994 87.9658 -0.0658719 87.3344 0.0605112ZM94.4791 0.124528L94.3621 0.24726V6.65124C94.3621 12.9885 94.3631 13.0562 94.4574 13.1552C94.5709 13.2743 94.8702 13.2901 95.0082 13.1842C95.0985 13.1149 95.1012 12.9855 95.1245 7.6796L95.1483 2.24593L96.2646 4.66226C96.8786 5.99126 98.0003 8.42895 98.7572 10.0794C99.5141 11.7298 100.177 13.1195 100.231 13.1677C100.364 13.2867 100.628 13.2803 100.747 13.1552C100.841 13.0562 100.842 12.9885 100.842 6.63793C100.842 0.24891 100.842 0.220153 100.745 0.111224C100.609 -0.0422657 100.35 -0.036014 100.197 0.124528L100.08 0.24726L100.078 5.63847L100.075 11.0296L99.666 10.1794C99.4411 9.71179 98.758 8.23765 98.1482 6.90355C95.825 1.82147 95.0813 0.223154 94.9889 0.114275C94.8588 -0.0391148 94.6306 -0.0345637 94.4791 0.124528ZM111.159 0.0528592C110.115 0.272667 109.21 1.1845 108.969 2.25749C108.863 2.72951 108.861 10.5211 108.967 10.9923C109.188 11.9763 109.919 12.7881 110.897 13.1362C111.303 13.2808 112.145 13.268 112.604 13.1102C113.527 12.7926 114.222 11.9981 114.472 10.9742C114.561 10.6063 114.566 10.4061 114.566 6.62848C114.566 2.8768 114.561 2.64854 114.473 2.29014C114.194 1.14189 113.387 0.309276 112.326 0.0725644C111.991 -0.0023052 111.463 -0.0112076 111.159 0.0528592ZM44.3634 0.190345C44.2876 0.278268 44.2821 0.717683 44.2821 6.63718C44.2821 12.7278 44.2857 12.993 44.3693 13.0724C44.4466 13.1459 44.6313 13.1552 46.0107 13.1552C47.5345 13.1552 47.5724 13.1527 47.9405 13.0307C48.8418 12.7318 49.5022 12.0329 49.8262 11.035C49.9228 10.7375 49.9258 10.6276 49.9406 6.79607C49.9574 2.43193 49.9588 2.45659 49.65 1.77896C49.3348 1.08743 48.7329 0.51508 48.0397 0.24791C47.748 0.135481 47.6754 0.13048 46.0907 0.113525C44.5265 0.0968707 44.4408 0.100672 44.3634 0.190345ZM118.276 0.197397L118.163 0.292972V6.62848V12.964L118.276 13.0596C118.422 13.184 118.717 13.1862 118.823 13.0637C118.894 12.9807 118.902 12.6878 118.902 9.88788V6.80352L120.653 6.80277C121.616 6.80232 122.429 6.78502 122.461 6.76421C122.553 6.70285 122.625 6.44688 122.593 6.29479C122.532 6.00492 122.521 6.00332 120.63 6.00332H118.902V3.45265V0.901981H120.846C122.738 0.901981 122.794 0.89918 122.895 0.800005C123.021 0.677222 123.036 0.378894 122.925 0.212951L122.851 0.101772H120.62C118.494 0.101772 118.383 0.106273 118.276 0.197397ZM88.5854 0.928638C89.0338 1.07003 89.5347 1.52314 89.7533 1.98526C89.9853 2.47534 89.9831 2.42568 89.9683 6.75351L89.9545 10.8296L89.8019 11.1676C89.0492 12.8355 86.8085 12.8496 86.0691 11.191C85.838 10.6728 85.8259 10.4115 85.8445 6.35341C85.8596 3.03364 85.8702 2.60123 85.941 2.38687C86.2843 1.34805 87.123 0.74509 88.0961 0.837364C88.2534 0.852268 88.4736 0.893379 88.5854 0.928638ZM112.031 0.849568C112.788 0.964448 113.385 1.49034 113.676 2.29705C113.775 2.57197 113.777 2.65044 113.792 6.3253C113.81 10.4834 113.797 10.7466 113.558 11.2439C113.01 12.3803 111.689 12.7713 110.637 12.1086C110.299 11.8962 109.941 11.4516 109.788 11.0567L109.682 10.7796L109.668 6.81163C109.659 4.20665 109.672 2.74641 109.704 2.56052C109.85 1.73185 110.555 0.991255 111.325 0.85872C111.68 0.797704 111.689 0.797604 112.031 0.849568ZM47.5319 0.958246C48.2555 1.11954 48.8121 1.66108 49.0783 2.46269C49.1608 2.7113 49.1662 2.96572 49.1662 6.62848C49.1662 10.2912 49.1608 10.5457 49.0783 10.7943C48.8128 11.5938 48.3266 12.0775 47.5846 12.2804C47.3797 12.3364 47.0292 12.355 46.1781 12.355H45.0445V6.62848V0.901981H46.1619C46.8085 0.901981 47.3858 0.925687 47.5319 0.958246ZM44.4825 20.3095C44.2263 20.4174 44.2345 20.1989 44.2345 26.9088C44.2345 33.6922 44.2221 33.3939 44.5067 33.498C44.6755 33.5598 44.9149 33.4711 44.9931 33.3178C45.068 33.1709 45.0653 20.6597 44.9903 20.487C44.9604 20.4182 44.8715 20.3384 44.7926 20.3096C44.6264 20.2487 44.6266 20.2487 44.4825 20.3095ZM49.0621 20.3074C49.0049 20.3316 48.9352 20.3962 48.9072 20.451C48.8721 20.52 48.8565 22.5118 48.8565 26.9305C48.8565 33.2438 48.8575 33.3115 48.9518 33.4105C49.0153 33.4771 49.1106 33.5105 49.2377 33.5105C49.3648 33.5105 49.4601 33.4771 49.5236 33.4105C49.6176 33.3118 49.6189 33.2411 49.6226 27.8965L49.6263 22.4826L50.1753 23.6579C50.966 25.3506 52.8278 29.3866 53.7974 31.51C54.2891 32.5869 54.6812 33.3835 54.7534 33.4526C54.891 33.5842 55.0961 33.5737 55.2503 33.4271C55.3331 33.3486 55.3368 33.0643 55.3362 26.9135C55.3357 23.3763 55.3192 20.4554 55.2994 20.4227C55.2401 20.3249 55.0133 20.2574 54.855 20.2907C54.5634 20.3519 54.5748 20.1232 54.5715 25.9694L54.5685 31.2849L54.0579 30.2096C53.777 29.6182 52.658 27.1911 51.5712 24.8159C50.4843 22.4407 49.5478 20.4433 49.4901 20.3772C49.3819 20.2533 49.2435 20.2307 49.0621 20.3074ZM68.5018 20.3308C68.4127 20.3715 68.3373 20.4492 68.3216 20.5165C68.3068 20.5801 68.3007 23.0178 68.3081 25.9335L68.3214 31.2349L68.4281 31.5316C68.7409 32.4016 69.3714 33.0616 70.183 33.3685C70.5759 33.5171 71.3983 33.5532 71.8246 33.4407C72.6198 33.2307 73.3216 32.6305 73.6725 31.8601C73.779 31.6263 73.889 31.3014 73.917 31.1382C73.9511 30.9398 73.9674 29.133 73.9664 25.6868C73.9648 20.1244 73.9786 20.4159 73.7116 20.3094C73.5369 20.2396 73.2664 20.3561 73.231 20.5163C73.2169 20.58 73.1998 22.9502 73.1929 25.7835C73.1804 30.9047 73.1798 30.9365 73.0788 31.2152C72.9466 31.5799 72.7718 31.8666 72.5341 32.1088C71.5785 33.0822 70.0172 32.8344 69.328 31.6C69.0613 31.1223 69.0617 31.1338 69.0608 25.6054C69.06 20.5634 69.0593 20.5252 68.9629 20.4165C68.9094 20.3563 68.8468 20.3071 68.8238 20.3071C68.8008 20.3071 68.7533 20.2966 68.7185 20.2839C68.6835 20.2711 68.586 20.2922 68.5018 20.3308ZM103.506 20.3128C103.438 20.3391 103.357 20.4171 103.327 20.4862C103.287 20.5784 103.273 22.2925 103.273 26.9294C103.273 33.245 103.273 33.247 103.371 33.3787C103.444 33.4762 103.514 33.5105 103.637 33.5105C103.863 33.5105 103.968 33.4421 104.03 33.254C104.067 33.1416 104.083 31.2874 104.083 26.8738C104.083 20.1118 104.096 20.4479 103.822 20.3168C103.679 20.2484 103.673 20.2483 103.506 20.3128ZM110.482 20.3076C110.425 20.3318 110.346 20.4035 110.307 20.4669C110.209 20.6275 107.027 32.7758 107 33.095C106.979 33.3459 106.983 33.3582 107.138 33.4574C107.344 33.5889 107.432 33.587 107.581 33.448C107.709 33.3288 107.715 33.3087 108.186 31.4979L108.443 30.5106L110.635 30.5105L112.826 30.5104L113.108 31.6479C113.531 33.3566 113.544 33.3964 113.715 33.4893C113.961 33.6228 114.28 33.4531 114.28 33.1887C114.28 33.1217 113.989 31.957 113.633 30.6005C113.278 29.244 112.549 26.4574 112.013 24.4081C111.477 22.3588 111.007 20.6085 110.968 20.5185C110.929 20.4284 110.842 20.3328 110.775 20.3059C110.632 20.249 110.621 20.2491 110.482 20.3076ZM117.439 20.3077C117.173 20.4202 117.184 20.1051 117.198 26.931L117.21 33.2077L117.319 33.3216L117.427 33.4355H119.646H121.864L121.984 33.2898C122.117 33.1275 122.11 32.917 121.967 32.7511C121.894 32.6662 121.763 32.6603 119.943 32.6603H117.996L117.995 26.5962C117.993 20.0485 118.008 20.4163 117.739 20.309C117.588 20.2488 117.578 20.2487 117.439 20.3077ZM79.2809 20.4006C78.5546 20.62 77.9457 21.1445 77.5944 21.8531C77.1502 22.7494 77.1401 23.7217 77.5661 24.6094C77.757 25.0072 77.7956 25.0522 79.948 27.3837C81.5523 29.1214 81.7068 29.3271 81.8592 29.928C82.1081 30.909 81.5891 32.0096 80.647 32.4983C80.3423 32.6563 80.2417 32.6827 79.8719 32.7012C79.1073 32.7396 78.5576 32.472 78.0414 31.8101C77.7772 31.4712 77.7308 31.4335 77.5613 31.4202C77.4235 31.4093 77.3455 31.433 77.2671 31.5096C77.0279 31.7436 77.1935 32.1533 77.746 32.6939C78.6428 33.5716 80.0009 33.7762 81.0916 33.1982C81.3649 33.0533 81.8344 32.6512 82.0446 32.3819C82.8204 31.3882 82.8985 29.8397 82.2266 28.7727C82.1267 28.614 81.423 27.813 80.6629 26.9927C78.2687 24.4088 78.2299 24.3606 78.0829 23.783C77.8392 22.8251 78.3532 21.7218 79.2512 21.2755C79.6131 21.0956 80.2654 21.0521 80.6406 21.1829C81.1108 21.3468 81.4826 21.6326 81.8273 22.095C82.0038 22.3319 82.0412 22.3576 82.209 22.3576C82.3532 22.3576 82.4173 22.328 82.4938 22.2258C82.6262 22.0492 82.6182 21.8714 82.4671 21.6315C82.1144 21.0715 81.5607 20.6301 80.9619 20.4315C80.4946 20.2766 79.7373 20.2626 79.2809 20.4006ZM59.2937 20.4665C59.1969 20.5755 59.1965 20.6048 59.1965 26.9105V33.2449L59.2967 33.3402C59.3896 33.4285 59.4979 33.4365 60.779 33.4502C61.8604 33.4617 62.2442 33.4484 62.5438 33.3891C63.694 33.1614 64.5665 32.2739 64.8018 31.0925C64.8584 30.8083 64.8677 30.0674 64.8565 26.7413L64.843 22.7327L64.7146 22.3635C64.3777 21.3953 63.656 20.7141 62.6936 20.4557C62.3669 20.368 62.1632 20.3571 60.8585 20.3571C59.41 20.3571 59.3895 20.3585 59.2937 20.4665ZM85.2912 20.4607C85.1235 20.5992 85.1159 20.8908 85.2759 21.0485C85.3833 21.1544 85.4191 21.1573 86.6101 21.1573H87.8341V27.256V33.3548L87.94 33.4326C88.1008 33.5509 88.3696 33.5325 88.4929 33.3948L88.5965 33.279V27.2182V21.1573H89.8009C91.1241 21.1573 91.1807 21.1456 91.2404 20.8601C91.273 20.7045 91.2065 20.5244 91.0784 20.4212C91.021 20.3749 90.3302 20.3599 88.2098 20.3587C85.4551 20.3571 85.415 20.3585 85.2912 20.4607ZM94.3923 20.4607L94.2668 20.5644V26.9374C94.2668 33.2438 94.2678 33.3115 94.3621 33.4105C94.4256 33.4771 94.5209 33.5105 94.648 33.5105C94.7751 33.5105 94.8704 33.4771 94.9339 33.4105C95.027 33.3128 95.0292 33.2438 95.0292 30.4087V27.507L96.0852 27.5205L97.1411 27.5339L98.1937 30.4775C99.1454 33.1393 99.2589 33.428 99.3792 33.4935C99.6036 33.6156 99.9371 33.4201 99.9371 33.1665C99.9371 33.0649 99.271 31.1412 98.0525 27.7242L97.942 27.4143L98.3486 27.2078C98.8993 26.928 99.3769 26.439 99.6172 25.9085C99.8671 25.3572 99.9371 24.9158 99.9371 23.8931C99.9371 22.5295 99.7523 21.9602 99.081 21.2556C98.6683 20.8224 98.3027 20.6004 97.7645 20.4558C97.4378 20.3682 97.2345 20.3571 95.9572 20.3571C94.5732 20.3571 94.513 20.3611 94.3923 20.4607ZM62.3414 21.2089C63.2174 21.3526 63.9333 22.1044 64.0583 23.0115C64.115 23.4234 64.1164 30.3838 64.0599 30.794C63.9459 31.6213 63.4089 32.259 62.5853 32.5456C62.4205 32.6029 62.0631 32.6283 61.1621 32.6467L59.9589 32.6713V26.9143V21.1573L60.9953 21.1577C61.5653 21.1579 62.171 21.1809 62.3414 21.2089ZM97.7214 21.2833C98.3591 21.5254 98.8342 22.0251 99.052 22.6827C99.1615 23.0134 99.2087 24.285 99.1309 24.8082C99.0306 25.483 98.7316 25.9922 98.2294 26.3434C97.7848 26.6544 97.5129 26.7025 96.1847 26.7058L95.0292 26.7087V23.9276V21.1464L96.2562 21.1696C97.2815 21.189 97.5223 21.2077 97.7214 21.2833ZM112.196 28.1966L112.597 29.7095H110.629C109.074 29.7095 108.665 29.6964 108.682 29.647C108.717 29.5489 109.84 25.2918 110.257 23.677L110.634 22.2207L111.214 24.4522C111.533 25.6796 111.975 27.3645 112.196 28.1966ZM63.3188 40.6431C62.0737 40.959 61.1871 42.1376 61.1791 43.4873C61.1759 44.0223 61.2473 44.3635 61.4619 44.8401C61.6446 45.2458 61.9196 45.5679 63.988 47.7981C64.7234 48.591 65.3915 49.342 65.4728 49.4672C65.7852 49.9479 65.9117 50.7212 65.769 51.2774C65.6106 51.8951 65.1601 52.4553 64.5742 52.763C64.1348 52.9939 63.808 53.0493 63.356 52.9695C62.7488 52.8622 62.4102 52.6323 61.8153 51.9231C61.5595 51.6182 61.3905 51.584 61.1752 51.7935C61.0649 51.9008 61.0477 51.9501 61.0702 52.0955C61.1316 52.4926 61.7511 53.1527 62.3562 53.4657C63.0315 53.8151 63.6894 53.8976 64.3613 53.7172C65.5321 53.4029 66.377 52.4402 66.57 51.2005C66.6385 50.7606 66.6387 50.6707 66.5721 50.2429C66.4899 49.715 66.3157 49.2787 66.0293 48.8836C65.9272 48.7429 65.0748 47.7976 64.1351 46.7831C63.1954 45.7686 62.3633 44.8425 62.2858 44.7251C61.9855 44.2697 61.8704 43.5527 62.0096 43.0036C62.2298 42.1343 63.0032 41.443 63.8284 41.3777C64.5788 41.3183 65.2316 41.6686 65.7993 42.4353C65.9242 42.604 65.9722 42.6329 66.1271 42.6329C66.2662 42.6329 66.3351 42.6006 66.4216 42.4951C66.4837 42.4193 66.5346 42.3216 66.5346 42.278C66.5346 42.0991 66.3066 41.7415 65.9817 41.4109C65.2787 40.6954 64.2648 40.4031 63.3188 40.6431ZM70.0157 40.6596C69.9647 40.7131 69.9103 40.8312 69.8947 40.9221C69.8792 41.0131 69.8726 43.8971 69.8802 47.331L69.8939 53.5744L70.0276 53.6951C70.237 53.8841 70.5307 53.824 70.6299 53.5718C70.6662 53.4796 70.6777 51.5607 70.6689 47.0972L70.6563 40.7536L70.5438 40.658C70.3971 40.5333 70.1352 40.5341 70.0157 40.6596ZM76.5172 40.6134C76.4124 40.6354 76.2194 40.6983 76.0884 40.7533C75.2168 41.1187 74.6514 41.7526 74.3717 42.678L74.2539 43.0682L74.2546 47.1292C74.2551 50.4956 74.2671 51.2426 74.3242 51.4969C74.703 53.1832 76.3571 54.1777 77.9328 53.6666C78.6059 53.4483 79.2627 52.8712 79.5904 52.2099C79.9015 51.5823 79.9242 51.3761 79.9242 49.1708C79.9242 47.2898 79.9213 47.2297 79.827 47.1235C79.732 47.0164 79.7033 47.014 78.5185 47.014C77.3337 47.014 77.305 47.0164 77.21 47.1235C77.1566 47.1837 77.1128 47.2944 77.1128 47.3695C77.1128 47.7679 77.2371 47.8143 78.306 47.8143H79.1703L79.1504 49.5272C79.1329 51.0313 79.1198 51.2706 79.043 51.4902C78.715 52.428 78.003 52.9656 77.089 52.9656C76.0727 52.9656 75.2524 52.2584 75.0649 51.2206C74.9963 50.8408 74.9992 43.5292 75.0681 43.1347C75.1388 42.7298 75.411 42.2032 75.6784 41.9538C76.14 41.5233 76.837 41.3009 77.3988 41.4047C77.9976 41.5155 78.3436 41.7541 78.9338 42.4634C79.0931 42.6548 79.1265 42.6729 79.2673 42.6444C79.6093 42.575 79.6826 42.247 79.4435 41.8559C79.098 41.2907 78.3153 40.7359 77.6901 40.6129C77.3944 40.5547 76.7953 40.555 76.5172 40.6134ZM83.5456 40.6624C83.4513 40.7614 83.4503 40.8291 83.4503 47.1871V53.6119L83.5546 53.7138C83.6864 53.8428 83.9286 53.8458 84.0763 53.7202L84.1888 53.6246L84.2127 48.2162L84.2365 42.8077L85.2339 44.9734C85.7825 46.1645 86.9039 48.602 87.7259 50.3899C88.5956 52.2818 89.2643 53.6769 89.3254 53.7272C89.4764 53.8515 89.6761 53.8375 89.8137 53.693L89.9306 53.5703V47.1758C89.9306 40.8097 89.9302 40.7808 89.8335 40.6718C89.7193 40.5432 89.4286 40.5228 89.2846 40.6333C89.1943 40.7026 89.1915 40.8321 89.1683 46.137L89.1444 51.5696L88.6495 50.5297C88.3773 49.9577 87.6666 48.4207 87.0703 47.1141C85.4956 43.664 84.1767 40.8136 84.0928 40.6792C83.9965 40.5249 83.6857 40.5153 83.5456 40.6624ZM44.361 40.7539C44.2884 40.8379 44.2821 41.3573 44.2821 47.2027V53.5601L44.388 53.6379C44.4783 53.7043 44.71 53.7158 45.9581 53.7158C46.823 53.7158 47.5256 53.6936 47.6748 53.6616C47.8137 53.6317 48.1214 53.5096 48.3587 53.3902C49.1281 53.0028 49.6815 52.2517 49.8763 51.3303C49.9855 50.8141 49.9895 43.5824 49.881 43.038C49.6601 41.9301 48.843 41.0173 47.8252 40.7417C47.5872 40.6772 47.2426 40.6624 45.9861 40.6624C44.5486 40.6624 44.4343 40.6688 44.361 40.7539ZM53.6004 40.7736C53.5342 40.8727 53.5262 41.5651 53.5262 47.2002C53.5262 53.4491 53.5272 53.5168 53.6215 53.6158C53.7141 53.7129 53.7803 53.7158 55.9473 53.7158C58.1262 53.7158 58.1803 53.7134 58.2822 53.6138C58.4284 53.4708 58.4224 53.1989 58.2695 53.0384L58.1525 52.9156H56.2205H54.2886V50.1399V47.3641H56.0172C57.9978 47.3641 57.9576 47.3719 57.9576 46.9862C57.9576 46.8306 57.929 46.734 57.8623 46.6639C57.7705 46.5676 57.7035 46.5639 56.0278 46.5639H54.2886V44.0149V41.4658L56.2465 41.4517L58.2043 41.4376L58.2954 41.3195C58.415 41.1645 58.4121 40.9102 58.2893 40.7719L58.1921 40.6624H55.9333H53.6745L53.6004 40.7736ZM47.7819 41.5813C48.3773 41.8081 48.8218 42.2814 49.0562 42.938C49.1631 43.2374 49.1634 43.2463 49.1795 46.889C49.1901 49.2907 49.1783 50.6763 49.1448 50.9385C49.0203 51.9142 48.3986 52.6501 47.537 52.8417C47.3096 52.8923 46.8884 52.9141 46.1285 52.9147L45.0445 52.9156V47.1891V41.4626H46.2574C47.4147 41.4626 47.4846 41.468 47.7819 41.5813Z" fill="white"/>
</svg>
