<?xml version="1.0" encoding="UTF-8"?>
<svg id="Layer_2" data-name="Layer 2" xmlns="http://www.w3.org/2000/svg" width="347" height="347" viewBox="0 0 347 347">
  <defs>
    <style>
      .cls-1, .cls-2 {
        fill: #fff;
      }

      .cls-2 {
        fill-rule: evenodd;
      }

      .cls-3 {
        fill: #824bb2;
      }
    </style>
  </defs>
  <g id="Layer_2-2" data-name="Layer 2">
    <g id="Layer_1-2" data-name="Layer 1-2">
      <circle class="cls-3" cx="173.5" cy="173.5" r="173.5"/>
      <g>
        <path class="cls-2" d="M186.56,227.7v-47.74c0-2.56,.2-5.1,.94-6.93,2.06-5.11,6.72-10.39,14.58-10.39,10.29,0,14.39,7.84,14.39,19.33v45.73h28.42v-49.02c0-26.26-14.02-38.47-32.72-38.47-15.1,0-21.84,8.31-25.61,14.12v.28h-.19c.05-.09,.13-.19,.19-.28v-12.11h-28.43c.38,8.02,0,85.48,0,85.48h28.43Z"/>
        <rect class="cls-1" x="114" y="142.21" width="28.41" height="85.48"/>
        <path class="cls-2" d="M128.02,130.55h.19c9.91,0,16.08-6.57,16.08-14.77-.19-8.39-6.16-14.77-15.89-14.77s-16.08,6.38-16.08,14.77,6.18,14.77,15.71,14.77h-.01Z"/>
        <path class="cls-2" d="M186.56,154.61v-.28h0c-.06,.09-.14,.19-.19,.28h.19Z"/>
      </g>
    </g>
  </g>
</svg>