<?xml version="1.0" encoding="UTF-8"?>
<svg id="Layer_2" data-name="Layer 2" xmlns="http://www.w3.org/2000/svg" width="350" height="350" viewBox="0 0 350 350">
  <defs>
    <style>
      .cls-1 {
        fill: #fff;
      }

      .cls-2 {
        fill: #824bb2;
      }
    </style>
  </defs>
  <g id="Layer_2-2" data-name="Layer 2">
    <g id="Layer_1-2" data-name="Layer 1-2">
      <circle class="cls-2" cx="175" cy="175" r="175"/>
      <path class="cls-1" d="M232.16,121.48H118.48c-8.5,0-15.5,7.49-15.5,16.57v73.65c0,9.08,7,16.57,15.5,16.57h113.68c8.5,0,15.5-7.49,15.5-16.57v-73.65c0-9.08-7-16.57-15.5-16.57h0Zm-1.08,11.05l-52.58,50.17c-2.01,1.92-4.24,1.92-6.25,0l-52.64-50.17h111.47Zm-117.77,78.94v-70.14l35.42,33.78-35.42,36.36Zm9.31,5.75l33.86-34.69,8.88,8.46c5.65,5.38,14.38,5.39,20.02,0l8.89-8.52,33.75,34.75H122.62Zm114.71-5.81l-35.31-36.36,35.31-33.72v70.08Z"/>
    </g>
  </g>
</svg>