<?xml version="1.0" encoding="UTF-8"?>
<svg id="Layer_2" data-name="Layer 2" xmlns="http://www.w3.org/2000/svg" width="604.22" height="81.35" viewBox="0 0 604.22 81.35">
  <defs>
    <style>
      .cls-1 {
        fill: #fff;
      }
    </style>
  </defs>
  <g id="Layer_2-2" data-name="Layer 2">
    <rect class="cls-1" x="195.53" y=".96" width="1.12" height="80.15"/>
    <path class="cls-1" d="M214.64,17.83h5.15c1.3,0,2.51,.2,3.64,.59,1.13,.39,2.11,.95,2.95,1.69,.84,.73,1.5,1.63,1.99,2.69s.73,2.26,.73,3.61c0,1.47-.22,2.75-.65,3.86s-1.05,2.03-1.85,2.78c-.8,.74-1.77,1.3-2.92,1.67s-2.44,.56-3.87,.56h-5.15V17.83h-.02Zm2.5,15.25h2.62c2.15,0,3.8-.53,4.95-1.6s1.73-2.73,1.73-4.98c0-1.02-.16-1.92-.49-2.72-.33-.8-.78-1.48-1.35-2.04-.58-.56-1.25-.98-2.02-1.28-.78-.29-1.61-.44-2.51-.44h-2.92v13.05h-.01Z"/>
    <path class="cls-1" d="M235.04,19.68h-2.65v-2.65h2.65v2.65Zm-2.5,2.85h2.35v12.75h-2.35v-12.75Z"/>
    <path class="cls-1" d="M244.46,35.28h-2.8l-4.57-12.75h2.57l3.45,10.4h.05l3.53-10.4h2.35l-4.57,12.75h-.01Z"/>
    <path class="cls-1" d="M253.74,19.68h-2.65v-2.65h2.65v2.65Zm-2.5,2.85h2.35v12.75h-2.35v-12.75Z"/>
    <path class="cls-1" d="M256.56,32.78c.23,.15,.48,.28,.75,.4s.53,.21,.8,.29,.52,.13,.76,.16c.24,.03,.45,.05,.61,.05,.27,0,.54-.03,.83-.09,.28-.06,.54-.16,.78-.3,.23-.14,.42-.33,.58-.56,.15-.23,.22-.53,.22-.88,0-.38-.14-.71-.41-.98-.28-.27-.62-.51-1.03-.74-.41-.22-.85-.45-1.33-.66-.47-.22-.92-.48-1.33-.78s-.75-.65-1.02-1.05c-.28-.4-.41-.9-.41-1.5,0-.67,.12-1.25,.35-1.74s.55-.9,.95-1.23c.4-.32,.87-.57,1.42-.72s1.14-.24,1.77-.24c.55,0,1.06,.05,1.53,.15,.47,.1,.93,.22,1.4,.35l-.2,2.05c-.13-.08-.31-.16-.54-.24-.22-.08-.46-.15-.7-.21-.24-.07-.48-.12-.7-.15-.23-.03-.4-.05-.54-.05-.6,0-1.12,.12-1.57,.38-.45,.25-.68,.64-.68,1.18,0,.43,.14,.79,.41,1.06s.62,.52,1.02,.72c.41,.21,.85,.42,1.33,.62,.48,.21,.92,.46,1.33,.75,.41,.29,.75,.65,1.03,1.09,.27,.43,.41,.99,.41,1.67s-.12,1.27-.37,1.77-.58,.91-1,1.24c-.42,.32-.89,.57-1.42,.72-.53,.16-1.08,.24-1.65,.24-.6,0-1.2-.05-1.8-.14s-1.17-.28-1.7-.56l.12-2.1v.03Z"/>
    <path class="cls-1" d="M269.66,19.68h-2.65v-2.65h2.65v2.65Zm-2.5,2.85h2.35v12.75h-2.35v-12.75Z"/>
    <path class="cls-1" d="M272.59,28.9c0-.97,.15-1.86,.46-2.67s.75-1.52,1.33-2.11,1.26-1.05,2.05-1.39,1.68-.5,2.66-.5,1.85,.17,2.65,.5,1.48,.8,2.05,1.39c.57,.59,1,1.3,1.31,2.11s.46,1.71,.46,2.67-.16,1.78-.47,2.59c-.32,.81-.76,1.52-1.33,2.12-.57,.61-1.25,1.09-2.05,1.44-.8,.35-1.68,.52-2.62,.52s-1.85-.17-2.64-.52-1.48-.83-2.05-1.44c-.58-.61-1.02-1.32-1.34-2.12-.32-.81-.47-1.67-.47-2.59h0Zm2.5,0c0,.57,.08,1.13,.24,1.7s.4,1.08,.72,1.54c.33,.46,.74,.83,1.24,1.11s1.1,.43,1.8,.43,1.27-.14,1.77-.43c.5-.28,.91-.65,1.24-1.11s.57-.97,.73-1.54,.24-1.13,.24-1.7c0-.6-.09-1.19-.28-1.76-.18-.58-.44-1.09-.77-1.54s-.75-.81-1.25-1.08-1.06-.4-1.67-.4-1.2,.13-1.69,.4-.91,.62-1.25,1.08c-.34,.45-.6,.96-.79,1.54s-.27,1.16-.27,1.76h0Z"/>
    <path class="cls-1" d="M288.34,22.53h2.28v2.03h.05c.35-.73,.91-1.3,1.67-1.71,.77-.41,1.6-.61,2.5-.61,1.65,0,2.86,.48,3.62,1.45,.77,.97,1.15,2.31,1.15,4.02v7.58h-2.35v-6.6c0-1.5-.19-2.62-.58-3.35-.38-.73-1.09-1.13-2.12-1.2-.67,0-1.25,.13-1.74,.39s-.9,.62-1.21,1.08c-.32,.46-.55,1.01-.7,1.66-.15,.65-.23,1.36-.23,2.12v5.9h-2.35v-12.75h.01Z"/>
    <path class="cls-1" d="M308.96,28.9c0-.97,.15-1.86,.46-2.67s.75-1.52,1.33-2.11,1.26-1.05,2.05-1.39,1.68-.5,2.66-.5,1.85,.17,2.65,.5,1.48,.8,2.05,1.39c.57,.59,1,1.3,1.31,2.11s.46,1.71,.46,2.67-.16,1.78-.47,2.59c-.32,.81-.76,1.52-1.33,2.12-.57,.61-1.25,1.09-2.05,1.44-.8,.35-1.68,.52-2.62,.52s-1.85-.17-2.64-.52-1.48-.83-2.05-1.44c-.58-.61-1.02-1.32-1.34-2.12-.32-.81-.47-1.67-.47-2.59h0Zm2.5,0c0,.57,.08,1.13,.24,1.7s.4,1.08,.72,1.54c.33,.46,.74,.83,1.24,1.11s1.1,.43,1.8,.43,1.27-.14,1.77-.43c.5-.28,.91-.65,1.24-1.11s.57-.97,.73-1.54,.24-1.13,.24-1.7c0-.6-.09-1.19-.28-1.76-.18-.58-.44-1.09-.77-1.54s-.75-.81-1.25-1.08-1.06-.4-1.67-.4-1.2,.13-1.69,.4-.91,.62-1.25,1.08c-.34,.45-.6,.96-.79,1.54s-.27,1.16-.27,1.76h0Z"/>
    <path class="cls-1" d="M326.24,24.43h-3v-1.9h3v-1.17c0-.77,.06-1.47,.17-2.1,.12-.63,.33-1.17,.65-1.62s.75-.79,1.31-1.04c.56-.24,1.27-.36,2.14-.36,.3,0,.58,.02,.84,.05s.5,.07,.74,.1l-.1,1.9c-.13-.05-.3-.09-.51-.11-.21-.03-.41-.04-.61-.04-.5,0-.9,.08-1.2,.23-.3,.15-.53,.36-.69,.64-.16,.27-.26,.6-.31,.96-.05,.37-.08,.77-.08,1.2v1.38h3.37v1.9h-3.37v10.85h-2.35v-10.87Z"/>
    <path class="cls-1" d="M340.86,17.83h2.5v17.45h-2.5V17.83Z"/>
    <path class="cls-1" d="M347.21,22.53h2.28v2.03h.05c.35-.73,.91-1.3,1.67-1.71,.77-.41,1.6-.61,2.5-.61,1.65,0,2.86,.48,3.62,1.45,.77,.97,1.15,2.31,1.15,4.02v7.58h-2.35v-6.6c0-1.5-.19-2.62-.58-3.35-.38-.73-1.09-1.13-2.12-1.2-.67,0-1.25,.13-1.74,.39s-.9,.62-1.21,1.08c-.32,.46-.55,1.01-.7,1.66-.15,.65-.23,1.36-.23,2.12v5.9h-2.35v-12.75h.01Z"/>
    <path class="cls-1" d="M371.14,33.48h-.05c-.15,.23-.36,.47-.62,.72-.27,.25-.58,.48-.94,.67-.36,.2-.77,.37-1.24,.5s-.98,.2-1.55,.2c-.97,0-1.8-.2-2.49-.59s-1.26-.91-1.7-1.56c-.44-.65-.77-1.39-.97-2.21-.21-.83-.31-1.67-.31-2.54s.11-1.67,.34-2.45c.23-.78,.57-1.47,1.03-2.06s1.03-1.06,1.71-1.41,1.49-.52,2.43-.52c1.12,0,2.01,.2,2.67,.59,.67,.39,1.18,.88,1.55,1.46h.05v-7.75h2.35v18.75h-2.25v-1.8h-.01Zm-7.37-4.62c-.02,.5,.04,1.03,.17,1.6s.34,1.09,.62,1.56c.28,.48,.65,.87,1.1,1.19s.99,.48,1.62,.48c.67,0,1.24-.15,1.71-.44s.86-.67,1.16-1.14,.52-.98,.66-1.54,.21-1.1,.21-1.64c0-.6-.08-1.19-.24-1.76s-.39-1.09-.7-1.54-.7-.81-1.17-1.09-1.03-.41-1.66-.41-1.18,.14-1.62,.41c-.45,.27-.82,.63-1.1,1.08s-.49,.95-.61,1.51c-.12,.57-.18,1.14-.16,1.73h.01Z"/>
    <path class="cls-1" d="M388.29,35.28h-2.28v-2.03h-.05c-.35,.73-.91,1.3-1.67,1.71-.77,.41-1.6,.61-2.5,.61-1.65,0-2.86-.48-3.62-1.45-.77-.97-1.15-2.31-1.15-4.02v-7.58h2.35v6.6c0,1.5,.19,2.62,.58,3.35,.38,.73,1.09,1.13,2.12,1.2,.67,0,1.25-.13,1.74-.39s.9-.62,1.21-1.08c.32-.46,.55-1.01,.7-1.65,.15-.64,.22-1.35,.22-2.14v-5.9h2.35v12.77Z"/>
    <path class="cls-1" d="M390.96,32.78c.23,.15,.48,.28,.75,.4s.53,.21,.8,.29,.52,.13,.76,.16c.24,.03,.45,.05,.61,.05,.27,0,.54-.03,.83-.09s.54-.16,.78-.3,.42-.33,.58-.56c.15-.23,.22-.53,.22-.88,0-.38-.14-.71-.41-.98-.28-.27-.62-.51-1.03-.74-.41-.22-.85-.45-1.33-.66-.47-.22-.92-.48-1.33-.78s-.75-.65-1.02-1.05c-.28-.4-.41-.9-.41-1.5,0-.67,.12-1.25,.35-1.74s.55-.9,.95-1.23c.4-.32,.88-.57,1.42-.72,.55-.16,1.14-.24,1.77-.24,.55,0,1.06,.05,1.53,.15,.47,.1,.93,.22,1.4,.35l-.2,2.05c-.13-.08-.31-.16-.54-.24-.22-.08-.46-.15-.7-.21-.24-.07-.48-.12-.7-.15-.23-.03-.4-.05-.54-.05-.6,0-1.12,.12-1.57,.38-.45,.25-.68,.64-.68,1.18,0,.43,.14,.79,.41,1.06s.62,.52,1.02,.72c.41,.21,.85,.42,1.33,.62,.48,.21,.92,.46,1.33,.75,.41,.29,.75,.65,1.03,1.09,.27,.43,.41,.99,.41,1.67s-.12,1.27-.37,1.77-.58,.91-1,1.24c-.42,.32-.89,.57-1.42,.72-.53,.16-1.08,.24-1.65,.24-.6,0-1.2-.05-1.8-.14-.6-.09-1.17-.28-1.7-.56l.12-2.1v.03Z"/>
    <path class="cls-1" d="M408.04,24.43h-3.37v6.97c0,.75,.2,1.32,.59,1.7s.85,.58,1.39,.58c.37,0,.68-.05,.94-.14s.48-.2,.66-.31v2c-.27,.08-.57,.16-.91,.24s-.7,.11-1.09,.11c-1.22,0-2.17-.3-2.87-.89-.7-.59-1.05-1.53-1.05-2.81v-7.45h-2.88v-1.9h2.88v-2.95l2.35-.75v3.7h3.37v1.9h-.01Z"/>
    <path class="cls-1" d="M410.61,22.53h2.2v1.97h.05c.32-.67,.78-1.21,1.39-1.64,.61-.43,1.25-.64,1.94-.64,.35,0,.63,.02,.85,.05s.45,.08,.7,.12v2.1c-.22-.08-.44-.14-.66-.17-.23-.03-.44-.05-.64-.05-1.05,0-1.89,.47-2.53,1.4-.63,.93-.95,2.2-.95,3.8v5.8h-2.35v-12.75h0Z"/>
    <path class="cls-1" d="M422.76,19.68h-2.65v-2.65h2.65v2.65Zm-2.5,2.85h2.35v12.75h-2.35v-12.75Z"/>
    <path class="cls-1" d="M427.13,23.43c.58-.35,1.23-.64,1.93-.86,.7-.22,1.46-.34,2.27-.34,1.83,0,3.15,.44,3.94,1.33,.79,.88,1.19,2.2,1.19,3.95v5.28c0,.73,0,1.29,.03,1.66s.04,.65,.08,.84h-2.2v-1.65h-.05c-.13,.2-.32,.41-.55,.64-.23,.23-.51,.43-.84,.62s-.7,.35-1.12,.49c-.42,.13-.9,.2-1.44,.2-.68,0-1.31-.08-1.89-.22-.58-.15-1.07-.39-1.49-.71-.42-.33-.74-.74-.96-1.24s-.34-1.1-.34-1.8c0-.8,.2-1.47,.59-2,.39-.53,.88-.96,1.46-1.29,.58-.32,1.22-.56,1.92-.7s1.35-.21,1.95-.21h1.25c.37,0,.78,.02,1.25,.05,0-1.1-.23-1.93-.69-2.49s-1.28-.84-2.46-.84c-.67,0-1.33,.12-1.99,.35s-1.23,.55-1.71,.95l-.12-2h-.01Zm6.98,5.76c-.25,0-.5,0-.75-.02s-.5-.03-.75-.03c-.32,0-.73,.02-1.23,.06s-.99,.15-1.46,.31c-.48,.17-.88,.41-1.23,.74-.34,.33-.51,.77-.51,1.34,0,.33,.07,.63,.22,.89s.34,.47,.56,.65c.22,.17,.48,.31,.76,.4,.28,.09,.56,.14,.83,.14,1.17,0,2.05-.32,2.65-.96s.9-1.44,.9-2.39v-1.12h.01Z"/>
    <path class="cls-1" d="M440.36,16.53h2.35v18.75h-2.35V16.53Z"/>
    <path class="cls-1" d="M453.29,17.83h5.15c1.3,0,2.51,.2,3.64,.59s2.11,.95,2.95,1.69,1.5,1.63,1.99,2.69,.73,2.26,.73,3.61c0,1.47-.22,2.75-.65,3.86s-1.05,2.03-1.85,2.78c-.8,.74-1.78,1.3-2.93,1.67-1.15,.38-2.44,.56-3.88,.56h-5.15V17.83h0Zm2.5,15.25h2.62c2.15,0,3.8-.53,4.95-1.6,1.15-1.07,1.72-2.73,1.72-4.98,0-1.02-.16-1.92-.49-2.72s-.78-1.48-1.35-2.04-1.25-.98-2.02-1.28c-.78-.29-1.61-.44-2.51-.44h-2.92v13.05h0Z"/>
    <path class="cls-1" d="M480.66,34.75c-.23,.08-.48,.17-.73,.26-.25,.09-.53,.18-.84,.26-.31,.08-.67,.15-1.08,.21-.41,.06-.87,.09-1.39,.09-1.13,0-2.11-.17-2.94-.5-.83-.33-1.51-.8-2.05-1.4-.54-.6-.95-1.33-1.21-2.18-.27-.85-.4-1.79-.4-2.82,0-.95,.14-1.82,.42-2.6s.69-1.46,1.21-2.04c.53-.58,1.15-1.02,1.89-1.34,.73-.32,1.55-.47,2.45-.47,1.07,0,1.96,.18,2.67,.55,.72,.37,1.29,.87,1.73,1.51,.43,.64,.75,1.4,.94,2.29,.19,.88,.29,1.83,.29,2.85h-9.1c0,.63,.11,1.21,.34,1.72,.23,.52,.53,.96,.92,1.34s.84,.67,1.35,.88,1.04,.31,1.59,.31c.38,0,.78-.05,1.19-.14s.79-.2,1.15-.33,.67-.26,.95-.41c.27-.15,.49-.28,.64-.4v2.35h0Zm-1.53-7.06c0-.48-.07-.94-.21-1.38-.14-.43-.35-.81-.61-1.14s-.6-.58-1-.76c-.4-.18-.85-.28-1.35-.28-.58,0-1.08,.11-1.49,.33s-.75,.5-1.03,.84-.48,.72-.62,1.14c-.14,.42-.24,.83-.29,1.25h6.6Z"/>
    <path class="cls-1" d="M483.46,32.78c.23,.15,.48,.28,.75,.4s.53,.21,.8,.29,.52,.13,.76,.16c.24,.03,.45,.05,.61,.05,.27,0,.54-.03,.83-.09s.54-.16,.78-.3,.42-.33,.58-.56c.15-.23,.22-.53,.22-.88,0-.38-.14-.71-.41-.98-.28-.27-.62-.51-1.03-.74-.41-.22-.85-.45-1.33-.66-.47-.22-.92-.48-1.33-.78-.41-.3-.75-.65-1.02-1.05-.28-.4-.41-.9-.41-1.5,0-.67,.12-1.25,.35-1.74s.55-.9,.95-1.23c.4-.32,.88-.57,1.42-.72,.55-.16,1.14-.24,1.77-.24,.55,0,1.06,.05,1.53,.15,.47,.1,.93,.22,1.4,.35l-.2,2.05c-.13-.08-.31-.16-.54-.24-.22-.08-.46-.15-.7-.21-.24-.07-.48-.12-.7-.15-.23-.03-.4-.05-.54-.05-.6,0-1.12,.12-1.57,.38-.45,.25-.68,.64-.68,1.18,0,.43,.14,.79,.41,1.06,.27,.27,.62,.52,1.02,.72,.41,.21,.85,.42,1.33,.62,.48,.21,.92,.46,1.33,.75,.41,.29,.75,.65,1.03,1.09,.27,.43,.41,.99,.41,1.67s-.12,1.27-.37,1.77-.58,.91-1,1.24c-.42,.32-.89,.57-1.42,.72-.53,.16-1.08,.24-1.65,.24-.6,0-1.2-.05-1.8-.14s-1.17-.28-1.7-.56l.12-2.1v.03Z"/>
    <path class="cls-1" d="M496.56,19.68h-2.65v-2.65h2.65v2.65Zm-2.5,2.85h2.35v12.75h-2.35v-12.75Z"/>
    <path class="cls-1" d="M511.61,34.73c0,1.93-.53,3.43-1.58,4.5s-2.72,1.6-5,1.6c-.33,0-.66-.01-.99-.04s-.67-.07-1.04-.14-.75-.15-1.16-.26-.87-.25-1.39-.44l.25-2.17c.45,.2,.86,.38,1.24,.53,.37,.15,.74,.27,1.09,.36,.35,.09,.71,.16,1.08,.2,.37,.04,.77,.06,1.2,.06,1.25,0,2.22-.39,2.91-1.18,.69-.78,1.04-1.85,1.04-3.2v-1.25h-.05c-.5,.67-1.13,1.16-1.9,1.49s-1.56,.49-2.37,.49c-.92,0-1.72-.17-2.4-.51-.68-.34-1.25-.8-1.7-1.39-.45-.58-.79-1.25-1.01-2-.22-.75-.34-1.54-.34-2.38s.12-1.63,.35-2.44c.23-.81,.59-1.53,1.06-2.17s1.07-1.16,1.78-1.56,1.54-.6,2.51-.6c1.13,0,2.03,.19,2.69,.58,.66,.38,1.16,.92,1.51,1.62h.05v-1.9h2.18v12.2h0Zm-6.08-1.35c.55,0,1.05-.11,1.51-.34,.46-.23,.85-.53,1.17-.92,.33-.39,.58-.85,.76-1.38s.27-1.09,.27-1.69c0-.67-.08-1.3-.22-1.89-.15-.59-.38-1.11-.7-1.56s-.71-.81-1.17-1.08c-.47-.27-1.01-.4-1.62-.4s-1.12,.15-1.56,.44c-.44,.29-.81,.67-1.1,1.12-.29,.46-.51,.97-.66,1.53s-.22,1.11-.22,1.66c0,.6,.08,1.17,.25,1.71s.4,1.02,.7,1.44c.3,.42,.67,.75,1.11,.99s.94,.36,1.49,.36h-.01Z"/>
    <path class="cls-1" d="M515.23,22.53h2.28v2.03h.05c.35-.73,.91-1.3,1.67-1.71s1.6-.61,2.5-.61c1.65,0,2.86,.48,3.62,1.45s1.15,2.31,1.15,4.02v7.58h-2.35v-6.6c0-1.5-.19-2.62-.58-3.35-.38-.73-1.09-1.13-2.12-1.2-.67,0-1.25,.13-1.74,.39s-.9,.62-1.21,1.08c-.32,.46-.55,1.01-.7,1.66s-.23,1.36-.23,2.12v5.9h-2.35v-12.75h0Z"/>
    <path class="cls-1" d="M226.84,50.64c-1.1-.65-2.3-.97-3.6-.97-1,0-1.91,.17-2.74,.51s-1.53,.82-2.12,1.42c-.59,.61-1.05,1.33-1.36,2.16-.32,.83-.48,1.74-.48,2.73s.17,1.97,.51,2.8,.81,1.55,1.41,2.15,1.3,1.06,2.1,1.39,1.65,.49,2.55,.49c.32,0,.65-.02,1-.06s.7-.1,1.04-.17c.34-.08,.67-.16,.98-.26s.57-.22,.79-.35l.15,2.42c-.67,.28-1.37,.46-2.1,.53s-1.36,.1-1.87,.1c-1.38,0-2.64-.21-3.77-.64-1.13-.42-2.1-1.03-2.9-1.82-.8-.79-1.42-1.75-1.86-2.88s-.66-2.38-.66-3.76,.23-2.58,.69-3.67c.46-1.1,1.1-2.04,1.92-2.83s1.8-1.39,2.92-1.81,2.35-.64,3.69-.64c.68,0,1.35,.05,2,.16s1.29,.3,1.93,.59l-.2,2.42h-.02Z"/>
    <path class="cls-1" d="M228.61,58.84c0-.97,.15-1.86,.46-2.67s.75-1.52,1.33-2.11,1.26-1.05,2.05-1.39c.79-.33,1.68-.5,2.66-.5s1.85,.17,2.65,.5,1.48,.8,2.05,1.39,1,1.3,1.31,2.11c.31,.82,.46,1.71,.46,2.67s-.16,1.78-.47,2.59c-.32,.81-.76,1.52-1.33,2.12-.57,.61-1.25,1.09-2.05,1.44-.8,.35-1.68,.52-2.62,.52s-1.85-.17-2.64-.52-1.48-.83-2.05-1.44c-.57-.61-1.02-1.32-1.34-2.12-.32-.81-.48-1.67-.48-2.59h.01Zm2.5,0c0,.57,.08,1.13,.24,1.7s.4,1.08,.72,1.54c.33,.46,.74,.83,1.24,1.11s1.1,.43,1.8,.43,1.27-.14,1.77-.43c.5-.28,.91-.65,1.24-1.11s.57-.97,.73-1.54,.24-1.13,.24-1.7c0-.6-.09-1.19-.28-1.76s-.44-1.09-.77-1.54c-.33-.45-.75-.81-1.25-1.08s-1.06-.4-1.67-.4-1.2,.13-1.69,.4c-.49,.27-.91,.62-1.25,1.08-.34,.45-.6,.96-.79,1.54s-.27,1.16-.27,1.76h0Z"/>
    <path class="cls-1" d="M244.66,46.46h2.35v18.75h-2.35v-18.75Z"/>
    <path class="cls-1" d="M251.24,46.46h2.35v18.75h-2.35v-18.75Z"/>
    <path class="cls-1" d="M267.29,64.69c-.23,.08-.48,.17-.73,.26-.25,.09-.53,.18-.84,.26s-.67,.15-1.08,.21c-.41,.06-.87,.09-1.39,.09-1.13,0-2.11-.17-2.94-.5-.83-.33-1.51-.8-2.05-1.4-.54-.6-.95-1.33-1.21-2.18-.27-.85-.4-1.79-.4-2.82,0-.95,.14-1.82,.42-2.6s.69-1.46,1.21-2.04c.53-.58,1.15-1.02,1.89-1.34,.73-.32,1.55-.47,2.45-.47,1.07,0,1.96,.18,2.67,.55,.72,.37,1.29,.87,1.73,1.51,.43,.64,.75,1.4,.94,2.29,.19,.88,.29,1.83,.29,2.85h-9.1c0,.63,.11,1.21,.34,1.72,.23,.52,.53,.96,.92,1.34s.84,.67,1.35,.88,1.04,.31,1.59,.31c.38,0,.78-.05,1.19-.14s.79-.2,1.15-.33,.67-.26,.95-.41c.27-.15,.49-.28,.64-.4v2.35h0Zm-1.53-7.06c0-.48-.07-.94-.21-1.38s-.35-.81-.61-1.14-.6-.58-1-.76-.85-.28-1.35-.28c-.58,0-1.08,.11-1.49,.33s-.75,.5-1.03,.84-.48,.72-.62,1.14c-.14,.42-.24,.83-.29,1.25h6.6Z"/>
    <path class="cls-1" d="M282.31,64.66c0,1.93-.53,3.43-1.58,4.5s-2.72,1.6-5,1.6c-.33,0-.66-.01-.99-.04s-.67-.07-1.04-.14-.75-.15-1.16-.26-.87-.25-1.39-.44l.25-2.17c.45,.2,.86,.38,1.24,.53,.37,.15,.74,.27,1.09,.36,.35,.09,.71,.16,1.08,.2,.37,.04,.77,.06,1.2,.06,1.25,0,2.22-.39,2.91-1.18,.69-.78,1.04-1.85,1.04-3.2v-1.25h-.05c-.5,.67-1.13,1.16-1.9,1.49s-1.56,.49-2.37,.49c-.92,0-1.72-.17-2.4-.51-.68-.34-1.25-.8-1.7-1.39-.45-.58-.79-1.25-1.01-2s-.34-1.54-.34-2.38,.12-1.63,.35-2.44c.23-.81,.59-1.53,1.06-2.17s1.07-1.16,1.78-1.56c.71-.4,1.54-.6,2.51-.6,1.13,0,2.03,.19,2.69,.58,.66,.38,1.16,.92,1.51,1.62h.05v-1.9h2.18v12.2h-.01Zm-6.08-1.35c.55,0,1.05-.11,1.51-.34,.46-.23,.85-.53,1.17-.92,.33-.39,.58-.85,.76-1.38,.18-.53,.27-1.09,.27-1.69,0-.67-.08-1.3-.22-1.89-.15-.59-.38-1.11-.7-1.56s-.71-.81-1.17-1.08c-.47-.27-1.01-.4-1.62-.4s-1.12,.15-1.56,.44-.81,.67-1.1,1.12c-.29,.46-.51,.97-.66,1.53s-.22,1.11-.22,1.66c0,.6,.08,1.17,.25,1.71s.4,1.02,.7,1.44c.3,.42,.67,.75,1.11,.99,.44,.24,.94,.36,1.49,.36h0Z"/>
    <path class="cls-1" d="M295.71,64.69c-.23,.08-.48,.17-.73,.26-.25,.09-.53,.18-.84,.26s-.67,.15-1.08,.21c-.41,.06-.87,.09-1.39,.09-1.13,0-2.11-.17-2.94-.5-.83-.33-1.51-.8-2.05-1.4-.54-.6-.95-1.33-1.21-2.18-.27-.85-.4-1.79-.4-2.82,0-.95,.14-1.82,.42-2.6s.69-1.46,1.21-2.04c.53-.58,1.15-1.02,1.89-1.34,.73-.32,1.55-.47,2.45-.47,1.07,0,1.96,.18,2.67,.55,.72,.37,1.29,.87,1.73,1.51,.43,.64,.75,1.4,.94,2.29,.19,.88,.29,1.83,.29,2.85h-9.1c0,.63,.11,1.21,.34,1.72,.23,.52,.53,.96,.92,1.34s.84,.67,1.35,.88,1.04,.31,1.59,.31c.38,0,.78-.05,1.19-.14s.79-.2,1.15-.33c.36-.12,.67-.26,.95-.41,.27-.15,.49-.28,.64-.4v2.35h0Zm-1.53-7.06c0-.48-.07-.94-.21-1.38-.14-.43-.35-.81-.61-1.14s-.6-.58-1-.76-.85-.28-1.35-.28c-.58,0-1.08,.11-1.49,.33s-.75,.5-1.03,.84-.48,.72-.62,1.14c-.14,.42-.24,.83-.29,1.25h6.6Z"/>
    <path class="cls-1" d="M305.19,58.84c0-.97,.15-1.86,.46-2.67s.75-1.52,1.33-2.11,1.26-1.05,2.05-1.39,1.68-.5,2.66-.5,1.85,.17,2.65,.5,1.48,.8,2.05,1.39,1,1.3,1.31,2.11,.46,1.71,.46,2.67-.16,1.78-.47,2.59c-.32,.81-.76,1.52-1.33,2.12-.57,.61-1.25,1.09-2.05,1.44-.8,.35-1.68,.52-2.62,.52s-1.85-.17-2.64-.52-1.48-.83-2.05-1.44c-.58-.61-1.02-1.32-1.34-2.12-.32-.81-.48-1.67-.48-2.59h.01Zm2.5,0c0,.57,.08,1.13,.24,1.7s.4,1.08,.72,1.54c.33,.46,.74,.83,1.24,1.11s1.1,.43,1.8,.43,1.27-.14,1.77-.43c.5-.28,.91-.65,1.24-1.11s.57-.97,.73-1.54,.24-1.13,.24-1.7c0-.6-.09-1.19-.28-1.76s-.44-1.09-.77-1.54c-.33-.45-.75-.81-1.25-1.08s-1.06-.4-1.67-.4-1.2,.13-1.69,.4c-.49,.27-.91,.62-1.25,1.08-.34,.45-.6,.96-.79,1.54-.18,.58-.27,1.16-.27,1.76h0Z"/>
    <path class="cls-1" d="M322.46,54.36h-3v-1.9h3v-1.17c0-.77,.06-1.47,.17-2.1,.12-.63,.33-1.17,.65-1.62,.32-.45,.75-.79,1.31-1.04,.56-.24,1.27-.36,2.14-.36,.3,0,.58,.02,.84,.05,.26,.03,.5,.07,.74,.1l-.1,1.9c-.13-.05-.3-.09-.51-.11-.21-.03-.41-.04-.61-.04-.5,0-.9,.08-1.2,.23-.3,.15-.53,.36-.69,.64-.16,.27-.26,.6-.31,.96-.05,.37-.08,.77-.08,1.2v1.38h3.38v1.9h-3.38v10.85h-2.35v-10.87Z"/>
    <path class="cls-1" d="M336.94,47.76h5.15c1.3,0,2.51,.2,3.64,.59s2.11,.95,2.95,1.69,1.5,1.63,1.99,2.69c.48,1.06,.73,2.26,.73,3.61,0,1.47-.22,2.75-.65,3.86s-1.05,2.03-1.85,2.78c-.8,.74-1.78,1.3-2.93,1.67-1.15,.38-2.44,.56-3.87,.56h-5.15v-17.45h-.01Zm2.5,15.25h2.62c2.15,0,3.8-.53,4.95-1.6,1.15-1.07,1.72-2.73,1.72-4.98,0-1.02-.16-1.92-.49-2.72s-.78-1.48-1.35-2.04-1.25-.98-2.02-1.28c-.78-.29-1.61-.44-2.51-.44h-2.92v13.05h0Z"/>
    <path class="cls-1" d="M364.31,64.69c-.23,.08-.48,.17-.73,.26-.25,.09-.53,.18-.84,.26s-.67,.15-1.08,.21c-.41,.06-.87,.09-1.39,.09-1.13,0-2.11-.17-2.94-.5s-1.51-.8-2.05-1.4c-.54-.6-.95-1.33-1.21-2.18-.27-.85-.4-1.79-.4-2.82,0-.95,.14-1.82,.42-2.6s.69-1.46,1.21-2.04c.53-.58,1.15-1.02,1.89-1.34,.73-.32,1.55-.47,2.45-.47,1.07,0,1.96,.18,2.67,.55,.72,.37,1.29,.87,1.73,1.51,.43,.64,.75,1.4,.94,2.29,.19,.88,.29,1.83,.29,2.85h-9.1c0,.63,.11,1.21,.34,1.72,.23,.52,.53,.96,.92,1.34s.84,.67,1.35,.88,1.04,.31,1.59,.31c.38,0,.78-.05,1.19-.14s.79-.2,1.15-.33,.67-.26,.95-.41c.27-.15,.49-.28,.64-.4v2.35h0Zm-1.53-7.06c0-.48-.07-.94-.21-1.38s-.35-.81-.61-1.14c-.27-.33-.6-.58-1-.76s-.85-.28-1.35-.28c-.58,0-1.08,.11-1.49,.33s-.75,.5-1.03,.84-.48,.72-.62,1.14c-.14,.42-.24,.83-.29,1.25h6.6Z"/>
    <path class="cls-1" d="M367.11,62.71c.23,.15,.48,.28,.75,.4s.53,.21,.8,.29,.52,.13,.76,.16c.24,.03,.45,.05,.61,.05,.27,0,.54-.03,.83-.09,.28-.06,.54-.16,.78-.3s.42-.33,.58-.56c.15-.23,.22-.53,.22-.88,0-.38-.14-.71-.41-.98-.28-.27-.62-.51-1.03-.74-.41-.22-.85-.45-1.33-.66-.47-.22-.92-.48-1.33-.78s-.75-.65-1.02-1.05c-.28-.4-.41-.9-.41-1.5,0-.67,.12-1.25,.35-1.74s.55-.9,.95-1.23c.4-.32,.87-.57,1.42-.72,.55-.16,1.14-.24,1.77-.24,.55,0,1.06,.05,1.53,.15s.93,.22,1.4,.35l-.2,2.05c-.13-.08-.31-.16-.54-.24-.22-.08-.46-.15-.7-.21-.24-.07-.48-.12-.7-.15-.23-.03-.4-.05-.54-.05-.6,0-1.12,.12-1.57,.38-.45,.25-.68,.64-.68,1.18,0,.43,.14,.79,.41,1.06s.62,.52,1.02,.72c.41,.21,.85,.42,1.33,.62,.48,.21,.92,.46,1.33,.75,.41,.29,.75,.65,1.03,1.09,.27,.43,.41,.99,.41,1.67s-.12,1.27-.38,1.77-.58,.91-1,1.24c-.42,.32-.89,.57-1.42,.72-.53,.16-1.08,.24-1.65,.24-.6,0-1.2-.05-1.8-.14-.6-.09-1.17-.28-1.7-.56l.12-2.1v.03Z"/>
    <path class="cls-1" d="M380.21,49.61h-2.65v-2.65h2.65v2.65Zm-2.5,2.85h2.35v12.75h-2.35v-12.75Z"/>
    <path class="cls-1" d="M395.26,64.66c0,1.93-.53,3.43-1.58,4.5s-2.72,1.6-5,1.6c-.33,0-.66-.01-.99-.04s-.67-.07-1.04-.14-.75-.15-1.16-.26-.87-.25-1.39-.44l.25-2.17c.45,.2,.86,.38,1.24,.53,.37,.15,.74,.27,1.09,.36,.35,.09,.71,.16,1.08,.2,.37,.04,.77,.06,1.2,.06,1.25,0,2.22-.39,2.91-1.18,.69-.78,1.04-1.85,1.04-3.2v-1.25h-.05c-.5,.67-1.13,1.16-1.9,1.49-.77,.33-1.56,.49-2.37,.49-.92,0-1.72-.17-2.4-.51-.68-.34-1.25-.8-1.7-1.39-.45-.58-.79-1.25-1.01-2s-.34-1.54-.34-2.38,.12-1.63,.35-2.44c.23-.81,.59-1.53,1.06-2.17s1.07-1.16,1.78-1.56c.71-.4,1.54-.6,2.51-.6,1.13,0,2.03,.19,2.69,.58,.66,.38,1.16,.92,1.51,1.62h.05v-1.9h2.18v12.2h-.01Zm-6.08-1.35c.55,0,1.05-.11,1.51-.34,.46-.23,.85-.53,1.17-.92s.58-.85,.76-1.38c.18-.53,.27-1.09,.27-1.69,0-.67-.08-1.3-.22-1.89-.15-.59-.38-1.11-.7-1.56s-.71-.81-1.17-1.08c-.47-.27-1.01-.4-1.62-.4s-1.12,.15-1.56,.44-.81,.67-1.1,1.12c-.29,.46-.51,.97-.66,1.53s-.22,1.11-.22,1.66c0,.6,.08,1.17,.25,1.71s.4,1.02,.7,1.44c.3,.42,.67,.75,1.11,.99,.44,.24,.94,.36,1.49,.36h0Z"/>
    <path class="cls-1" d="M398.89,52.46h2.28v2.03h.05c.35-.73,.91-1.3,1.67-1.71s1.6-.61,2.5-.61c1.65,0,2.86,.48,3.62,1.45s1.15,2.31,1.15,4.02v7.58h-2.35v-6.6c0-1.5-.19-2.62-.58-3.35-.38-.73-1.09-1.13-2.12-1.2-.67,0-1.25,.13-1.74,.39s-.9,.62-1.21,1.08c-.32,.46-.55,1.01-.7,1.66-.15,.65-.23,1.36-.23,2.12v5.9h-2.35v-12.75h.01Z"/>
    <path class="cls-1" d="M420.96,53.36c.58-.35,1.23-.64,1.93-.86,.7-.22,1.46-.34,2.27-.34,1.83,0,3.15,.44,3.94,1.33,.79,.88,1.19,2.2,1.19,3.95v5.28c0,.73,0,1.29,.03,1.66,.02,.38,.04,.65,.08,.84h-2.2v-1.65h-.05c-.13,.2-.32,.41-.55,.64-.23,.23-.51,.43-.84,.62s-.7,.35-1.12,.49c-.42,.13-.9,.2-1.44,.2-.68,0-1.31-.08-1.89-.22-.58-.15-1.07-.39-1.49-.71-.42-.33-.74-.74-.96-1.24s-.34-1.1-.34-1.8c0-.8,.2-1.47,.59-2s.88-.96,1.46-1.29c.58-.32,1.22-.56,1.92-.7s1.35-.21,1.95-.21h1.25c.37,0,.78,.02,1.25,.05,0-1.1-.23-1.93-.69-2.49s-1.28-.84-2.46-.84c-.67,0-1.33,.12-1.99,.35s-1.23,.55-1.71,.95l-.12-2h-.01Zm6.98,5.76c-.25,0-.5,0-.75-.02s-.5-.03-.75-.03c-.32,0-.73,.02-1.23,.06s-.99,.15-1.46,.31c-.48,.17-.88,.41-1.23,.74s-.51,.77-.51,1.34c0,.33,.07,.63,.22,.89s.34,.47,.56,.65,.48,.31,.76,.4c.28,.09,.56,.14,.83,.14,1.17,0,2.05-.32,2.65-.96s.9-1.44,.9-2.39v-1.12h.01Z"/>
    <path class="cls-1" d="M433.88,52.46h2.28v2.03h.05c.35-.73,.91-1.3,1.67-1.71s1.6-.61,2.5-.61c1.65,0,2.86,.48,3.62,1.45s1.15,2.31,1.15,4.02v7.58h-2.35v-6.6c0-1.5-.19-2.62-.58-3.35-.38-.73-1.09-1.13-2.12-1.2-.67,0-1.25,.13-1.74,.39s-.9,.62-1.21,1.08c-.32,.46-.55,1.01-.7,1.66-.15,.65-.23,1.36-.23,2.12v5.9h-2.35v-12.75h.01Z"/>
    <path class="cls-1" d="M457.81,63.41h-.05c-.15,.23-.36,.47-.62,.72s-.58,.48-.94,.67c-.36,.2-.77,.37-1.24,.5s-.98,.2-1.55,.2c-.97,0-1.8-.2-2.49-.59s-1.26-.91-1.7-1.56c-.44-.65-.77-1.39-.97-2.21-.21-.83-.31-1.67-.31-2.54s.11-1.67,.34-2.45,.57-1.47,1.03-2.06,1.03-1.06,1.71-1.41c.68-.35,1.49-.52,2.43-.52,1.12,0,2.01,.2,2.67,.59,.67,.39,1.18,.88,1.55,1.46h.05v-7.75h2.35v18.75h-2.25v-1.8h-.01Zm-7.38-4.62c-.02,.5,.04,1.03,.17,1.6s.34,1.09,.62,1.56c.28,.48,.65,.87,1.1,1.19s.99,.48,1.62,.48c.67,0,1.24-.15,1.71-.44s.86-.67,1.16-1.14,.52-.98,.66-1.54,.21-1.1,.21-1.64c0-.6-.08-1.19-.24-1.76s-.39-1.09-.7-1.54c-.31-.45-.7-.81-1.17-1.09s-1.03-.41-1.66-.41-1.18,.14-1.62,.41c-.45,.27-.82,.63-1.1,1.08s-.49,.95-.61,1.51c-.12,.57-.18,1.14-.16,1.73h.01Z"/>
    <path class="cls-1" d="M470.61,47.76h9.78v2.2h-7.28v5.1h6.62v2.2h-6.62v5.75h7.28v2.2h-9.78v-17.45h0Z"/>
    <path class="cls-1" d="M483.79,52.46h2.28v2.03h.05c.35-.73,.91-1.3,1.67-1.71,.77-.41,1.6-.61,2.5-.61,1.65,0,2.86,.48,3.62,1.45,.77,.97,1.15,2.31,1.15,4.02v7.58h-2.35v-6.6c0-1.5-.19-2.62-.58-3.35-.38-.73-1.09-1.13-2.12-1.2-.67,0-1.25,.13-1.74,.39s-.9,.62-1.21,1.08c-.32,.46-.55,1.01-.7,1.66s-.23,1.36-.23,2.12v5.9h-2.35v-12.75h0Z"/>
    <path class="cls-1" d="M509.96,64.66c0,1.93-.53,3.43-1.58,4.5s-2.72,1.6-5,1.6c-.33,0-.66-.01-.99-.04s-.67-.07-1.04-.14-.75-.15-1.16-.26-.87-.25-1.39-.44l.25-2.17c.45,.2,.86,.38,1.24,.53,.37,.15,.74,.27,1.09,.36,.35,.09,.71,.16,1.08,.2,.37,.04,.77,.06,1.2,.06,1.25,0,2.22-.39,2.91-1.18,.69-.78,1.04-1.85,1.04-3.2v-1.25h-.05c-.5,.67-1.13,1.16-1.9,1.49s-1.56,.49-2.37,.49c-.92,0-1.72-.17-2.4-.51-.68-.34-1.25-.8-1.7-1.39-.45-.58-.79-1.25-1.01-2-.22-.75-.34-1.54-.34-2.38s.12-1.63,.35-2.44c.23-.81,.59-1.53,1.06-2.17s1.07-1.16,1.78-1.56c.71-.4,1.54-.6,2.51-.6,1.13,0,2.03,.19,2.69,.58,.66,.38,1.16,.92,1.51,1.62h.05v-1.9h2.18v12.2h0Zm-6.08-1.35c.55,0,1.05-.11,1.51-.34,.46-.23,.85-.53,1.17-.92s.58-.85,.76-1.38,.27-1.09,.27-1.69c0-.67-.08-1.3-.22-1.89-.15-.59-.38-1.11-.7-1.56s-.71-.81-1.17-1.08c-.47-.27-1.01-.4-1.62-.4s-1.12,.15-1.56,.44-.81,.67-1.1,1.12c-.29,.46-.51,.97-.66,1.53-.15,.56-.22,1.11-.22,1.66,0,.6,.08,1.17,.25,1.71s.4,1.02,.7,1.44c.3,.42,.67,.75,1.11,.99s.94,.36,1.49,.36h-.01Z"/>
    <path class="cls-1" d="M516.38,49.61h-2.65v-2.65h2.65v2.65Zm-2.5,2.85h2.35v12.75h-2.35v-12.75Z"/>
    <path class="cls-1" d="M520.16,52.46h2.28v2.03h.05c.35-.73,.91-1.3,1.67-1.71s1.6-.61,2.5-.61c1.65,0,2.86,.48,3.62,1.45s1.15,2.31,1.15,4.02v7.58h-2.35v-6.6c0-1.5-.19-2.62-.58-3.35-.38-.73-1.09-1.13-2.12-1.2-.67,0-1.25,.13-1.74,.39s-.9,.62-1.21,1.08c-.32,.46-.55,1.01-.7,1.66s-.23,1.36-.23,2.12v5.9h-2.35v-12.75h0Z"/>
    <path class="cls-1" d="M544.83,64.69c-.23,.08-.48,.17-.73,.26-.25,.09-.53,.18-.84,.26s-.67,.15-1.08,.21c-.41,.06-.87,.09-1.39,.09-1.13,0-2.11-.17-2.94-.5s-1.51-.8-2.05-1.4-.95-1.33-1.21-2.18c-.27-.85-.4-1.79-.4-2.82,0-.95,.14-1.82,.42-2.6,.28-.78,.69-1.46,1.21-2.04,.53-.58,1.15-1.02,1.89-1.34,.73-.32,1.55-.47,2.45-.47,1.07,0,1.96,.18,2.67,.55,.72,.37,1.29,.87,1.73,1.51,.43,.64,.75,1.4,.94,2.29,.19,.88,.29,1.83,.29,2.85h-9.1c0,.63,.11,1.21,.34,1.72,.23,.52,.53,.96,.92,1.34s.84,.67,1.35,.88c.51,.21,1.04,.31,1.59,.31,.38,0,.78-.05,1.19-.14s.79-.2,1.15-.33,.67-.26,.95-.41c.27-.15,.49-.28,.64-.4v2.35h.01Zm-1.53-7.06c0-.48-.07-.94-.21-1.38s-.35-.81-.61-1.14-.6-.58-1-.76-.85-.28-1.35-.28c-.58,0-1.08,.11-1.49,.33s-.75,.5-1.03,.84-.48,.72-.62,1.14-.24,.83-.29,1.25h6.6Z"/>
    <path class="cls-1" d="M558.36,64.69c-.23,.08-.48,.17-.73,.26-.25,.09-.53,.18-.84,.26s-.67,.15-1.08,.21c-.41,.06-.87,.09-1.39,.09-1.13,0-2.11-.17-2.94-.5s-1.51-.8-2.05-1.4-.95-1.33-1.21-2.18c-.27-.85-.4-1.79-.4-2.82,0-.95,.14-1.82,.42-2.6,.28-.78,.69-1.46,1.21-2.04,.53-.58,1.15-1.02,1.89-1.34,.73-.32,1.55-.47,2.45-.47,1.07,0,1.96,.18,2.67,.55,.72,.37,1.29,.87,1.73,1.51,.43,.64,.75,1.4,.94,2.29,.19,.88,.29,1.83,.29,2.85h-9.1c0,.63,.11,1.21,.34,1.72,.23,.52,.53,.96,.92,1.34,.39,.38,.84,.67,1.35,.88,.51,.21,1.04,.31,1.59,.31,.38,0,.78-.05,1.19-.14s.79-.2,1.15-.33c.36-.12,.67-.26,.95-.41,.27-.15,.49-.28,.64-.4v2.35h.01Zm-1.53-7.06c0-.48-.07-.94-.21-1.38-.14-.43-.35-.81-.61-1.14s-.6-.58-1-.76-.85-.28-1.35-.28c-.58,0-1.08,.11-1.49,.33s-.75,.5-1.03,.84-.48,.72-.62,1.14-.24,.83-.29,1.25h6.6Z"/>
    <path class="cls-1" d="M562.11,52.46h2.2v1.97h.05c.32-.67,.78-1.21,1.39-1.64s1.25-.64,1.94-.64c.35,0,.63,.02,.85,.05s.45,.08,.7,.12v2.1c-.22-.08-.44-.14-.66-.17-.23-.03-.44-.05-.64-.05-1.05,0-1.89,.47-2.53,1.4-.63,.93-.95,2.2-.95,3.8v5.8h-2.35v-12.75h0Z"/>
    <path class="cls-1" d="M574.26,49.61h-2.65v-2.65h2.65v2.65Zm-2.5,2.85h2.35v12.75h-2.35v-12.75Z"/>
    <path class="cls-1" d="M578.03,52.46h2.28v2.03h.05c.35-.73,.91-1.3,1.67-1.71s1.6-.61,2.5-.61c1.65,0,2.86,.48,3.62,1.45s1.15,2.31,1.15,4.02v7.58h-2.35v-6.6c0-1.5-.19-2.62-.58-3.35-.38-.73-1.09-1.13-2.12-1.2-.67,0-1.25,.13-1.74,.39s-.9,.62-1.21,1.08c-.32,.46-.55,1.01-.7,1.66s-.23,1.36-.23,2.12v5.9h-2.35v-12.75h0Z"/>
    <path class="cls-1" d="M604.21,64.66c0,1.93-.53,3.43-1.58,4.5s-2.72,1.6-5,1.6c-.33,0-.66-.01-.99-.04s-.67-.07-1.04-.14-.75-.15-1.16-.26-.87-.25-1.39-.44l.25-2.17c.45,.2,.86,.38,1.24,.53,.37,.15,.74,.27,1.09,.36,.35,.09,.71,.16,1.08,.2,.37,.04,.77,.06,1.2,.06,1.25,0,2.22-.39,2.91-1.18,.69-.78,1.04-1.85,1.04-3.2v-1.25h-.05c-.5,.67-1.13,1.16-1.9,1.49s-1.56,.49-2.37,.49c-.92,0-1.72-.17-2.4-.51-.68-.34-1.25-.8-1.7-1.39-.45-.58-.79-1.25-1.01-2-.22-.75-.34-1.54-.34-2.38s.12-1.63,.35-2.44c.23-.81,.59-1.53,1.06-2.17s1.07-1.16,1.78-1.56c.71-.4,1.54-.6,2.51-.6,1.13,0,2.03,.19,2.69,.58,.66,.38,1.16,.92,1.51,1.62h.05v-1.9h2.18v12.2h0Zm-6.08-1.35c.55,0,1.05-.11,1.51-.34,.46-.23,.85-.53,1.17-.92,.33-.39,.58-.85,.76-1.38s.27-1.09,.27-1.69c0-.67-.08-1.3-.22-1.89-.15-.59-.38-1.11-.7-1.56s-.71-.81-1.17-1.08c-.47-.27-1.01-.4-1.62-.4s-1.12,.15-1.56,.44-.81,.67-1.1,1.12c-.29,.46-.51,.97-.66,1.53s-.22,1.11-.22,1.66c0,.6,.08,1.17,.25,1.71s.4,1.02,.7,1.44c.3,.42,.67,.75,1.11,.99s.94,.36,1.49,.36h-.01Z"/>
    <g>
      <path class="cls-1" d="M58.36,37.13c-.31-1.12-.87-1.62-1.63-2.02-2.08-1.1-4.79-.33-7.17,.48-1.79,.61-2.34,.8-4.37,1.11-1.54,.24-6.68,.9-8.3-.44-.23-.19-.47-.61-.49-.88-.05-.56,.21-1.23,.4-1.44,.41-.45,1.37-.67,2.93-.67l3.98,.06c.25,.32,.88,.84,2.5,1.18,2.57,.55,5.4-.34,5.4-.34,0,0-.47-.09-.86-.38-.34-.26-.31-.64-.31-.64,0,0,.57,.28,1.39,.25,1.03-.03,1.5-.52,2.46-.76,.96-.24,2.03-.04,2.03-.04,0,0-.97-1.04-1.93-1.22s-2.16,.06-2.16,.06c0,0,.3-.13,.66-.46,.29-.26,.34-.7,.34-.7,0,0-1.15,.45-2.31,.38-1.17-.06-1.08-.48-3.34-.54-1.71-.05-3.13,.97-3.72,1.47-1.83-.12-3.28-.19-4.12-.19-2.33,0-3.68,.38-4.5,1.28-.69,.75-.99,1.71-.89,2.87,.08,.9,.48,1.66,1.2,2.26,2.18,1.8,8.01,1.25,10.07,.88,2.31-.41,3-.59,4.34-1.03l.08-.03c1.04-.35,4.19-1.4,5.51-.7,.27,.14,.45,.41,.56,.81,.05,.18,.08,.35,.08,.5,0,.27-.08,.5-.25,.71-1.2,1.47-5.73,1.72-7.7,1.83-.21-.05-1.53-.35-3.28-.36-1.17,0-2.15,.07-3.18,.14-1.89,.14-3.84,.29-7.09-.08-1.51-.17-2.92-.45-3.98-.76-.05-.4-.24-.79-.64-1.24,.78,.25,1.79-.6,2.08-1.03,0-.04-1.38-.41-1.46-1.3,0-.03,.98,.08,1.38-1.26-.98-.53-.67-.72-1.14-1.38-.41-.58-1.01-.87-1.75-.85,.3-.04,.32,0,.65-.16,.42-.21,.72-.8,1.14-.77-.85-1.33-3.13-1.51-4.08-1.23,.24-.3,.62-.64,.62-1.05-1.26,.35-2.5-.31-3.77-.07-1.05,.2-1.66,.62-1.99,1.63h-.05c-.33-1-.93-1.43-1.99-1.63-1.27-.24-2.51,.42-3.78,.07,0,.42,.38,.75,.62,1.05-.94-.28-3.23-.11-4.08,1.23,.42-.03,.71,.56,1.14,.77,.37,.19,.45,.15,.65,.16-.74-.02-1.34,.27-1.75,.85-.47,.66-.16,.86-1.14,1.38,.41,1.34,1.39,1.23,1.38,1.26-.08,.89-1.46,1.26-1.47,1.3,.29,.43,1.3,1.28,2.08,1.03-.64,.71-.75,1.26-.6,1.98-.99-.75-1.97-1.58-2.49-2.27-.12-.18-.51-1.46-.77-2.31l-.21-.69-.1-.37c-.31-1.14-.61-2.1-1.13-2.23-.29-.07-.54-.08-.77-.07-.18-.28-.43-.58-.72-.67-.6-.19-.89-.05-.89-.05,0,0,.49,.35,.65,.71,.04,.09,.07,.18,.09,.26-.11,.06-.21,.13-.29,.2l-.04,.04c-.06,.05-.15,.12-.24,.2l-.12-.03c-.62-.08-.89,.1-.89,.1,0,0,.34,.17,.59,.4-.22,.3-.4,.69-.4,1.17v.15c-.6,.04-.82,.26-.82,.26,0,0,.58,.16,.86,.43,.03,.03,.06,.06,.08,.09l-.05,.05c-.12,.19-.17,.4-.17,.63,0,.52,.29,1.08,.69,1.45,0,0,1.07,.89,1.17,.97,.43,.95,.89,1.78,1.2,2.13,.1,.12,.75,1.25,1.44,2.44,.09,.16,.19,.32,.28,.49,.15,.73,.32,1.64,.39,2.36,.14,1.29,0,2.73,0,2.73,0,0,.83-.04,1.21-.58,0-.01,.31,.89,.26,1.91-.03,.76-.23,1.8-.23,1.8,0,0,.81-.43,1.43-.97,.31-.27,.62-.72,.81-1.02,.67,.43,2.6-.26,3.56-.64,.19,.38,.45,.8,.8,1.28,.14-.58,.76-.87,1.04-1.33h.26c.04,.63-.15,1.22,.45,2.4,.17,.33,1,1.57,1.6,2.2-.23,1.07-.66,3.02-1.11,4.61-.51,1.83-.93,2.73-1.16,3.15-.69,.03-1.94,.08-2.34,.06-.95-.05-1.66,.15-2.1,.59-.03,.03-.06,.07-.09,.1-.33,.05-.71,.15-.92,.38-.42,.47-.42,.79-.42,.79,0,0,.52-.3,.92-.3h.08v.08c0,.09,.06,.24,.15,.42-.07,.05-.12,.1-.17,.16-.38,.5-.36,.82-.36,.82,0,0,.49-.33,.88-.36,.12,.2,.26,.4,.41,.59-.02,.02-.04,.04-.05,.06-.35,.53-.3,.85-.3,.85,0,0,.39-.3,.75-.4,.12,.14,.25,.27,.37,.37,.57,.51,2,.18,3.81-.3l1.12-.28c.79-.15,1.28-.46,1.65-1.06,.09-.14,.16-.37,.29-.74l.11-.32c.25-.7,.44-1.15,.94-1.95,.02-.02,.5-.8,1.16-1.88,.58-.49,1.29-1.05,1.8-1.4,.78-.53,2.34-1.32,2.34-1.32,0,0-.42-.68-1.04-.77,0,0,.79-.82,1.46-1.11,.76-.33,1.73-.51,1.73-.51,0,0-.36-.73-.9-1.08,.23-.08,.44-.21,.7-.38,1.32-.86,2.29-.83,3.2-.57,.04-.59-.11-.96-.63-1.3,.43-.18,.88-.34,1.35-.46,.3,.52,.64,1.08,.79,1.3,.68,.96,1.7,2.28,2.53,3.11,.02,.02,.03,.06,.03,.11,0,.35-.42,1.3-.66,1.85l-.21,.47s-.83,1.95-1.07,2.52c-.48,.03-1.89,.1-2.38,.08-.93-.04-1.62,.15-2.05,.58-.05,.05-.1,.11-.14,.17-.35,.06-.76,.19-.97,.45-.39,.5-.37,.82-.37,.82,0,0,.5-.33,.9-.35h.17c.02,.11,.07,.25,.16,.43-.09,.07-.17,.14-.23,.23-.34,.53-.3,.84-.3,.84,0,0,.47-.37,.86-.43h.04c.09,.14,.2,.29,.3,.43-.04,.04-.07,.08-.1,.12-.35,.53-.3,.85-.3,.85,0,0,.45-.36,.84-.42,.12,.14,.24,.26,.35,.36,.55,.49,1.72,.2,3.33-.26l1.14-.3c.77-.14,1.25-.45,1.61-1.03l.3-.64c.14-.33,.3-.7,.42-.89,.19-.29,.38-.64,.58-1.02,.27-.23,.52-.44,.69-.57,.51-.39,1.81-1.1,1.81-1.1,0,0-.26-.57-.79-.62,0,0,.52-.58,1.14-.94,.44-.26,1.32-.41,1.32-.41,0,0-.61-.51-1.07-.71-.19-.08-.43-.13-.66-.17-.03-.27-.17-.56-.42-.95-.45-.7,.21-2.21,.69-3.07,.24,.34,.67,.9,1.39,1.7,0,0,2.31,2.53,2.82,3.08-.1,.4-.42,1.66-.94,3.05-.37,1.01-.9,2.06-1.17,2.58-.56,.03-1.82,.1-2.28,.08-.93-.05-1.62,.15-2.05,.58-.07,.07-.13,.15-.18,.22-.31,.07-.65,.21-.83,.44-.38,.5-.36,.82-.36,.82,0,0,.38-.36,.89-.37h.07c.03,.11,.08,.26,.17,.43-.09,.06-.17,.14-.23,.22-.34,.53-.3,.85-.3,.85,0,0,.47-.37,.86-.43h.04c.12,.18,.25,.37,.39,.55h0c-.35,.54-.3,.86-.3,.86,0,0,.35-.28,.7-.39,.1,.11,.2,.21,.29,.29,.55,.49,1.73,.2,3.34-.27l1.13-.29c.77-.14,1.25-.45,1.61-1.03,.16-.26,.86-1.89,1.05-2.37,.35-.85,.74-1.73,1.12-2.53,.19-.16,.37-.3,.51-.4,.63-.44,1.98-1.21,1.98-1.21,0,0-.27-.58-.79-.62,0,0,.53-.52,1.06-.86,.5-.32,1.4-.5,1.4-.5,0,0-.65-.49-1.11-.69-.27-.12-.66-.19-.93-.23-.08-.38-.27-.51-.56-.66-.26-.13-.61-.31-1.15-.95-.69-.81-.8-2.37-.8-3.93v-2.51c-.04-1.75-.3-2.98-.54-3.79,2.29-.21,6.48-.67,8.2-2.77,.52-.63,.78-1.37,.78-2.18,0-.36-.05-.73-.16-1.11h.04ZM13.93,49.7c-.53-.59-2.61-4.17-3.98-6.53-1.04-1.78-1.41-2.42-1.51-2.53-.27-.31-.74-1.15-1.14-2.05l-.03-.06-1.25-1.04c-.36-.33-.55-.81-.49-1.15,.12,.06,.29,.11,.47,.02,.46-.23,.47-.57,.47-.57,0,0-.39-.42-.84-.65-.07-.35,0-.65,.13-.91,.05,.16,.04,.27,.04,.27,0,0,.25,.23,.57,.17,.44-.08,.57-.43,.57-.43,0,0-.25-.4-.59-.71,.03-.02,.06-.05,.09-.07l.05-.04s.09-.07,.14-.1c.09,.05,.2,.1,.34,.1,.58,.03,.63-.32,.63-.32h0c.1,0,.21,.02,.33,.05,.17,.08,.41,.69,.72,1.82l.11,.39,.21,.69c.47,1.54,.7,2.28,.86,2.49,.67,.88,1.99,1.95,3.2,2.83,.06,.17,.12,.34,.18,.53,.23,.67,.99,1.86,1.27,2.46,.32,.69,.47,1.28,.3,2.15,.87-.11,1.54-.37,1.91-.92,.19,1.19-.24,2.03,.26,3.41-1.4,.56-2.81,.89-3.02,.7Zm5.8-6.17c-.16-.38-.21-.73-.35-1.43-.07-.02-.99-.64-.99-.64,0,0,0-1.83,0-1.82,0,0-2.31-2.82-2.32-2.8,0,.02,.79-1.41,.79-1.41v-.02c-.36-.25-1.21-.96-.76-1.82,.48-.91,1.6-.54,1.93-.4,.05-.05,2.51-1.12,2.55-1.1-.02-.02,.96,1.14,.96,1.14,0,0,.99-1.16,.96-1.14,.03-.02,2.5,1.05,2.55,1.1,.33-.14,1.45-.51,1.93,.4,.46,.86-.4,1.57-.76,1.82v.02s.81,1.43,.8,1.41c0-.02-2.33,2.8-2.32,2.8v1.82s-.92,.62-.99,.64c-.15,.69-.19,1.05-.35,1.43-.05,.12-.93,.38-1.79,.39h-.07c-.86-.02-1.74-.27-1.79-.39h.02Zm22.08,10.4c0,.34,.07,.66,.24,.92,.23,.35,.34,.56,.34,.73,0,.2-.15,.36-.46,.64-.33,.31-.78,1.23-1.31,2.29-.4,.82-.82,1.66-1.19,2.24-.15,.23-.32,.62-.47,.97l-.27,.57c-.27,.44-.61,.65-1.22,.77l-1.19,.31c-.82,.24-2.14,.62-2.65,.45,.09-.06,.19-.18,.22-.37,.07-.36-.14-.69-.14-.69,0,0-.46,.05-.88,.22-.03-.04-.05-.07-.08-.11,.09-.07,.21-.21,.28-.47,.08-.34-.12-.61-.12-.61,0,0-.36,.04-.73,.16-.02-.04-.04-.07-.05-.1,.11-.05,.24-.16,.3-.38,.05-.16,.02-.33-.02-.46,.32-.25,.84-.36,1.52-.33,.62,.03,2.53-.09,2.62-.09h.18l1.21-2.86,.2-.47c.39-.88,.7-1.59,.7-2.09,0-.21-.06-.38-.19-.51-.8-.8-1.79-2.1-2.46-3.04-.13-.18-.4-.64-.67-1.09,.76-.11,1.61-.1,2.61,.12-.02-.45-.13-.8-.6-1.07,1.52-.46,3.01-.42,3.64-.4,.04,.08,.09,.15,.13,.21,.31,.4,.8,.82,.99,.95,.04,.03,.11,.08,.19,.13,.15,.2,.27,.36,.35,.46-.3,.49-1.05,1.85-1.05,2.97l.03,.03Zm15.48-13.88c-1.65,2.02-6.04,2.41-8.16,2.6l-.37,.03,.12,.35c.25,.74,.57,2.03,.62,3.96v1.47c-.03,1.96-.06,4.17,.92,5.33,.62,.72,1.04,.94,1.33,1.09,.24,.12,.26,.13,.28,.4,.02,.2-.18,.49-.4,.82l-.38,.6c-.68,1.19-1.74,3.41-2.46,5.16-.25,.6-.89,2.1-1.01,2.29-.27,.44-.61,.65-1.22,.77l-1.18,.31c-.76,.22-1.93,.55-2.52,.49,.1-.07,.23-.2,.26-.39,.06-.41-.13-.67-.13-.67,0,0-.57,.06-1.02,.28l-.11-.15c.1-.05,.23-.17,.27-.42,.06-.38-.12-.68-.12-.68,0,0-.36,.04-.74,.16-.02-.03-.03-.06-.04-.08,.08-.05,.23-.16,.33-.37,.09-.18,.05-.41,0-.56,.32-.22,.82-.31,1.46-.29,.52,.02,1.92-.05,2.5-.08h.16l.08-.15c.24-.46,.86-1.67,1.27-2.79,.63-1.71,.99-3.25,.99-3.27l.03-.15-3.02-3.31c-1.2-1.33-1.58-1.99-1.58-2v-.02l-.03-.02s-.49-.58-.97-1.35l-.22-.35c-.43-.69-.84-1.35-1.26-1.77-.48-.48-1.36-1.12-1.4-1.15l-.42,.38s.47,.81,.7,1.21c-.66,.19-12.07,3.53-12.07,3.53l.08,.27c.12,.43,.27,1.1,.27,1.41v.09c-.14,.46-3.67,6.22-4.86,8.13-.52,.84-.74,1.33-1,2.06l-.11,.32c-.08,.25-.17,.53-.23,.62-.28,.45-.63,.67-1.26,.79l-1.16,.29c-.92,.25-2.56,.68-3.14,.5,.08-.04,.17-.13,.21-.29,.13-.54-.07-.8-.07-.8,0,0-.52,.05-.96,.25-.04-.06-.08-.11-.12-.17,.07-.04,.18-.13,.25-.3,.18-.42,0-.78,0-.78,0,0-.42,0-.84,.13-.02-.04-.04-.08-.05-.12,.09-.03,.25-.12,.36-.32,.1-.17,.08-.39,.05-.55,.34-.21,.84-.31,1.48-.28,.46,.02,1.93-.03,2.55-.06h.15l.08-.14c.23-.38,.71-1.33,1.3-3.43,.43-1.54,.85-3.41,1.09-4.52,.59-.47,1.67-2.07,1.87-2.45,.78-1.54,.23-2.08,.57-3.01-.1,.89,.99,1.14,1.18,1.93,1.94-2.61,1.01-3.59,1.27-5.22,.37,.56,1.04,.82,1.91,.92-.16-.87,0-1.46,.3-2.15,.28-.61,1.04-1.79,1.27-2.46,.22-.65,.4-1.15,.46-1.6,1.08,.31,2.46,.58,3.93,.74,3.3,.38,5.28,.23,7.2,.08,1.02-.08,1.99-.15,3.13-.14,1.8,.01,3.17,.35,3.19,.35h.09c2.37-.12,6.77-.36,8.14-2.03,.38-.47,.48-1.03,.29-1.72-.16-.57-.43-.95-.85-1.17-1.54-.82-4.75,.26-5.96,.66l-.08,.03c-1.31,.43-1.98,.61-4.26,1.01-2.34,.41-7.76,.77-9.61-.76-.6-.49-.93-1.12-.99-1.86-.08-1,.17-1.82,.74-2.44,.71-.77,1.93-1.09,4.08-1.09,.84,0,2.29,.07,4.13,.19l.3,.32-.31,.28c-1.47-.02-4.14-.06-4.14-.06-1.78,0-2.81,.26-3.35,.85-.31,.34-.61,1.18-.55,1.88,.04,.43,.34,.99,.7,1.28,1.76,1.46,6.71,.88,8.75,.57,2.01-.31,2.54-.47,4.47-1.13,2.27-.77,4.84-1.51,6.72-.52,.66,.35,1.09,.73,1.34,1.66,.29,1.05,.11,2.01-.51,2.77l.02-.02Z"/>
      <polygon class="cls-1" points="20.4 35.52 20.32 36.72 18.25 35.55 20.4 35.52"/>
      <path class="cls-1" d="M23.08,36.75c0,.09,.33,2.88,.33,2.88,0,0-1.51,.82-1.59,.86v1.03c.07,.05,.34,.26,.62,.38,.51,.21,1.02,.09,1.03,.09l.13-.03-.11,.38h-.05s-.6,.12-1.07-.02c-.41-.12-.62-.28-.68-.33h-.25c-.06,.04-.28,.2-.69,.33-.47,.14-1.04,.04-1.07,.03h-.04l-.11-.39,.13,.03s.52,.13,1.03-.09c.28-.12,.55-.33,.62-.38v-1.04c-.06-.04-1.58-1.12-1.58-1.12h2.83v-3.77l2.23-.02h.28s-1.92,1.14-2,1.19h.01Z"/>
    </g>
    <path class="cls-1" d="M62.64,39.74V1.29H0V40.07c0,1.82,.39,11.43,8.12,23.61,8.45,13.32,22.38,17.44,22.97,17.61l.21,.06,.21-.06c.59-.17,14.57-4.29,23.02-17.61,8.42-13.28,8.13-23.5,8.12-23.93h-.01Zm-9.87-26.56c.12-.35,.21-.73,.27-1.12l.02-.14,.12,.07c1.85,1.11,3,3.13,3,5.28,0,3.39-2.76,6.15-6.15,6.15s-6.15-2.76-6.15-6.15c0-1.28,.39-2.51,1.14-3.55l.05-.08,.08,.05c.31,.21,.6,.46,.85,.74l.05,.05-.04,.06c-.54,.8-.83,1.74-.83,2.71,0,2.68,2.18,4.86,4.86,4.86s4.86-2.18,4.86-4.86c0-1.61-.76-3.06-2.09-3.98l-.06-.04,.02-.07v.02Zm-6.01,6.86l.04-.06c.46-.69,.73-1.45,.81-2.28v-.07h.08c.36-.08,.72-.19,1.1-.33l.13-.05v.14c-.03,1.24-.42,2.42-1.13,3.43l-.05,.08-.08-.05c-.31-.21-.59-.46-.85-.75l-.05-.05h0Zm-6.5-9.14c.07-3.33,2.82-6.03,6.14-6.03s6.15,2.76,6.15,6.15-2.76,6.15-6.16,6.15l-.65-.05v-.09c.03-.38,.1-.75,.21-1.11l.02-.07,.42,.03c2.68,0,4.86-2.18,4.86-4.86s-2.18-4.86-4.86-4.86c-2.54,0-4.62,1.9-4.84,4.43v.07h-.08c-.36,.08-.72,.19-1.1,.33l-.13,.05v-.14h.02Zm7.7,1.98l-.07,.03-.05-.05c-.26-.3-.53-.57-.82-.8l-.11-.09,.12-.07c.91-.51,1.95-.78,2.99-.78h0l.65,.05v.09c-.03,.38-.1,.76-.21,1.11l-.02,.07-.42-.03c-.7,0-1.41,.16-2.07,.47h0Zm-5.19-1.76c2.44,0,4.59,1.38,5.6,3.61l.04,.08-.08,.04c-.35,.18-.7,.3-1.06,.38l-.07,.02-.03-.07c-.81-1.7-2.49-2.76-4.38-2.76-2.68,0-4.86,2.18-4.86,4.86s2.18,4.86,4.86,4.86c.7,0,1.42-.16,2.08-.48l.06-.03,.05,.05c.26,.3,.54,.57,.82,.8l.11,.09-.12,.07c-.91,.51-1.95,.79-3,.79-3.39,0-6.15-2.76-6.15-6.15s2.76-6.15,6.15-6.15h-.02Zm.91,3.92l-.02,.07c-.12,.36-.21,.73-.27,1.12l-.02,.14-.12-.07c-1.07-.64-1.92-1.59-2.44-2.74l-.04-.08,.08-.04c.35-.17,.7-.3,1.06-.37h.07l.03,.05c.36,.76,.92,1.41,1.61,1.89l.06,.04h0ZM6.45,19.8V5.82l.34-.06c.11-.02,2.66-.47,5.7-.47,2.41,0,4.59,.72,5.55,1.09,.96-.37,3.13-1.09,5.55-1.09,3.04,0,5.59,.45,5.7,.47l.34,.06V22.04l-.51-.11s-2.13-.46-5.24-.46c-2.34,0-4.75,.65-5.71,.99l-.14,.05-.14-.05c-.95-.34-3.37-.99-5.71-.99-3.11,0-5.21,.45-5.24,.46l-.5,.11v-2.24h0ZM53.22,62.85c-7.59,11.97-20.19,16.34-21.94,16.89-1.75-.56-14.3-4.92-21.89-16.89C1.78,50.87,1.51,41.26,1.51,39.95v-13.76H61.1v13.75c0,1.35-.28,10.95-7.88,22.93v-.02Z"/>
    <path class="cls-1" d="M12.53,6.14c-2.36,0-4.43,.28-5.21,.4v12.26c.81-.14,2.57-.38,4.91-.38,2.1,0,4.2,.48,5.43,.86V7.14c-.96-.36-2.95-.99-5.13-.99h0Zm3.63,10.27c-.11,.26-.44,.38-.73,.29-.02,0-1.37-.55-2.57-.55-1.33,0-2.88,.28-2.9,.28-.3,.08-.62-.07-.71-.33-.09-.26,.07-.54,.38-.62,.07-.02,1.73-.32,3.23-.32,1.42,0,2.9,.59,2.97,.62,.29,.1,.44,.38,.33,.63Zm0-2.44c-.11,.26-.44,.38-.73,.29-.02,0-1.37-.55-2.57-.55-1.33,0-2.88,.28-2.9,.28-.3,.08-.62-.06-.71-.33-.09-.26,.07-.54,.38-.62,.07-.02,1.73-.32,3.23-.32,1.42,0,2.9,.59,2.97,.62,.29,.1,.44,.38,.33,.63Zm0-2.44c-.11,.26-.44,.38-.73,.29-.02,0-1.37-.55-2.57-.55-1.33,0-2.88,.28-2.9,.28-.3,.08-.62-.07-.71-.33-.09-.26,.07-.54,.38-.62,.07-.02,1.73-.32,3.23-.32,1.42,0,2.9,.59,2.97,.62,.29,.1,.44,.38,.33,.63Zm0-2.43c-.11,.25-.44,.38-.73,.29-.02,0-1.37-.55-2.57-.55-1.33,0-2.88,.27-2.9,.28-.3,.08-.62-.06-.71-.33-.09-.26,.07-.54,.38-.62,.07-.02,1.73-.32,3.23-.32,1.42,0,2.9,.59,2.97,.61,.29,.1,.44,.38,.33,.64Z"/>
    <path class="cls-1" d="M23.62,6.14c-2.2,0-4.22,.65-5.17,1.01v12.14c1.23-.38,3.35-.88,5.47-.88,2.34,0,4.09,.24,4.91,.38V6.53c-.78-.12-2.86-.4-5.21-.4h0Zm3.32,9.98c-.09,.26-.41,.41-.71,.33-.02,0-1.57-.28-2.9-.28-1.2,0-2.55,.55-2.57,.55-.29,.1-.62-.03-.73-.29-.11-.25,.04-.54,.33-.63,.06-.02,1.55-.62,2.97-.62,1.5,0,3.17,.31,3.24,.32,.3,.08,.47,.36,.38,.62h-.01Zm0-2.44c-.09,.26-.41,.41-.71,.33-.02,0-1.57-.28-2.9-.28-1.2,0-2.55,.55-2.57,.55-.29,.09-.62-.03-.73-.29-.11-.26,.04-.54,.33-.63,.06-.02,1.55-.62,2.97-.62,1.5,0,3.17,.3,3.24,.32,.3,.08,.47,.36,.38,.62h-.01Zm0-2.44c-.09,.26-.41,.41-.71,.33-.02,0-1.57-.28-2.9-.28-1.2,0-2.55,.55-2.57,.55-.29,.09-.62-.04-.73-.29s.04-.54,.33-.63c.06-.02,1.55-.62,2.97-.62,1.5,0,3.17,.31,3.24,.32,.3,.08,.47,.36,.38,.62h-.01Zm0-2.44c-.09,.26-.41,.41-.71,.33-.02,0-1.57-.28-2.9-.28-1.2,0-2.55,.55-2.57,.55-.29,.09-.62-.04-.73-.29-.11-.26,.04-.54,.33-.64,.06-.02,1.55-.61,2.97-.61,1.5,0,3.17,.3,3.24,.32,.3,.08,.47,.36,.38,.62h-.01Z"/>
    <polygon class="cls-1" points="71.51 47.3 73.12 47.3 76.8 54.01 76.82 54.01 76.82 47.3 78.01 47.3 78.01 55.63 76.5 55.63 72.71 48.77 72.69 48.77 72.69 55.63 71.51 55.63 71.51 47.3"/>
    <path class="cls-1" d="M80.38,50.92c.45-.38,1.13-.61,1.76-.61,1.13,0,1.51,.53,1.51,1.58-.44-.02-.76-.02-1.19-.02-1.16,0-2.83,.48-2.83,2,0,1.33,.92,1.91,2.23,1.91,1.03,0,1.63-.56,1.89-.93h.02v.78h1.06c-.03-.18-.05-.49-.05-1.19v-2.52c0-1.66-.7-2.53-2.45-2.53-.77,0-1.45,.24-2,.57l.06,.95m3.27,2.35c0,.91-.58,1.6-1.69,1.6-.52,0-1.14-.35-1.14-1,0-1.06,1.5-1.15,2.12-1.15,.24,0,.47,.03,.71,.03v.52Z"/>
    <path class="cls-1" d="M89.91,50.45h-1.62v3.33c0,.71,.42,1.1,.95,1.1,.35,0,.59-.12,.76-.22v.96c-.25,.08-.6,.17-.96,.17-1.15,0-1.87-.55-1.87-1.77v-3.56h-1.37v-.9h1.37v-1.41l1.12-.36v1.77h1.62v.9"/>
    <path class="cls-1" d="M91.39,48.18h1.26v-1.27h-1.26v1.27Zm.07,7.45h1.12v-6.09h-1.12v6.09Z"/>
    <path class="cls-1" d="M94.23,52.59c0,1.74,1.26,3.19,3.1,3.19s3.1-1.45,3.1-3.19c0-1.85-1.25-3.2-3.1-3.2s-3.1,1.35-3.1,3.2m1.18,0c0-1.16,.71-2.28,1.92-2.28s1.9,1.12,1.9,2.28c0,1.08-.58,2.28-1.9,2.28s-1.92-1.2-1.92-2.28"/>
    <path class="cls-1" d="M101.93,49.54h1.09v.97h.02c.34-.7,1.15-1.12,1.99-1.12,1.58,0,2.29,.99,2.29,2.62v3.62h-1.13v-3.16c0-1.41-.3-2.1-1.29-2.16-1.27,0-1.85,1.02-1.85,2.51v2.81h-1.12v-6.09"/>
    <path class="cls-1" d="M109.58,50.92c.45-.38,1.14-.61,1.76-.61,1.12,0,1.52,.53,1.52,1.58-.45-.02-.75-.02-1.2-.02-1.16,0-2.83,.48-2.83,2,0,1.33,.93,1.91,2.24,1.91,1.04,0,1.63-.56,1.89-.93h.02v.78h1.06c-.03-.18-.05-.49-.05-1.19v-2.52c0-1.66-.7-2.53-2.44-2.53-.77,0-1.45,.24-2.01,.57l.06,.95m3.28,2.35c0,.91-.59,1.6-1.7,1.6-.52,0-1.14-.35-1.14-1,0-1.06,1.5-1.15,2.11-1.15,.25,0,.49,.03,.73,.03v.52Z"/>
    <rect class="cls-1" x="116.01" y="46.67" width="1.12" height="8.96"/>
    <path class="cls-1" d="M128.77,52.18c0,2.34-1.18,3.6-3.24,3.6s-3.24-1.26-3.24-3.6v-4.88h1.2v4.73c0,1.6,.5,2.7,2.04,2.7s2.04-1.1,2.04-2.7v-4.73h1.19v4.88"/>
    <path class="cls-1" d="M130.8,49.54h1.09v.97h.02c.33-.7,1.15-1.12,1.99-1.12,1.58,0,2.28,.99,2.28,2.62v3.62h-1.12v-3.16c0-1.41-.31-2.1-1.29-2.16-1.28,0-1.86,1.02-1.86,2.51v2.81h-1.12v-6.09"/>
    <path class="cls-1" d="M138.18,46.92h1.27v1.27h-1.27v-1.27Zm.07,2.63h1.12v6.09h-1.12v-6.09Z"/>
    <polygon class="cls-1" points="144.12 55.63 142.78 55.63 140.6 49.54 141.83 49.54 143.48 54.52 143.49 54.52 145.18 49.54 146.31 49.54 144.12 55.63"/>
    <path class="cls-1" d="M152.06,54.25c-.28,.23-1.14,.62-1.87,.62-1.06,0-2.01-.83-2.01-2.03h4.36c0-1.97-.66-3.44-2.69-3.44-1.73,0-2.87,1.28-2.87,3.08,0,1.99,.99,3.31,3.16,3.31,1,0,1.49-.25,1.92-.4v-1.13m-3.88-2.26c.09-.78,.54-1.69,1.64-1.69,.96,0,1.51,.76,1.51,1.69h-3.15Z"/>
    <path class="cls-1" d="M154.03,49.54h1.05v.94h.03c.3-.63,.95-1.09,1.59-1.09,.33,0,.5,.04,.74,.09v1c-.2-.09-.43-.1-.61-.1-1.01,0-1.67,.95-1.67,2.49v2.76h-1.12v-6.09"/>
    <path class="cls-1" d="M158.23,54.44c.43,.29,1.06,.43,1.39,.43,.5,0,1.15-.22,1.15-.88,0-1.11-2.64-1.01-2.64-2.72,0-1.26,.94-1.88,2.14-1.88,.53,0,.96,.12,1.41,.23l-.1,.99c-.25-.16-.91-.31-1.18-.31-.57,0-1.07,.23-1.07,.73,0,1.24,2.64,.89,2.64,2.83,0,1.31-1.03,1.91-2.13,1.91-.57,0-1.15-.07-1.67-.33l.07-1.02"/>
    <path class="cls-1" d="M163.4,46.92h1.26v1.27h-1.26v-1.27Zm.08,2.63h1.12v6.09h-1.12v-6.09Z"/>
    <path class="cls-1" d="M169.88,50.45h-1.6v3.33c0,.71,.42,1.1,.95,1.1,.34,0,.59-.12,.76-.22v.96c-.26,.08-.59,.17-.96,.17-1.16,0-1.88-.55-1.88-1.77v-3.56h-1.36v-.9h1.36v-1.41l1.13-.36v1.77h1.6v.9"/>
    <path class="cls-1" d="M170.85,57.28c.14,.05,.33,.09,.52,.09,1,0,1.35-1.38,1.35-1.5,0-.14-.15-.44-.23-.65l-2.07-5.68h1.23l1.64,5.04h.02l1.66-5.04h1.13l-2.24,6.22c-.4,1.16-.86,2.52-2.33,2.52-.36,0-.57-.05-.77-.08l.08-.92"/>
    <path class="cls-1" d="M71,66.7c0,1.75,1.26,3.19,3.11,3.19s3.09-1.45,3.09-3.19c0-1.86-1.23-3.19-3.09-3.19s-3.11,1.33-3.11,3.19m1.2,0c0-1.16,.7-2.29,1.91-2.29s1.89,1.13,1.89,2.29c0,1.09-.58,2.29-1.89,2.29s-1.91-1.2-1.91-2.29"/>
    <path class="cls-1" d="M79.43,64.57h-1.43v-.91h1.43v-.56c0-1.48,.38-2.45,2.04-2.45,.28,0,.52,.04,.75,.07l-.05,.9c-.13-.04-.34-.07-.54-.07-.97,0-1.08,.62-1.08,1.45v.65h1.61v.91h-1.61v5.18h-1.12v-5.18"/>
    <path class="cls-1" d="M90.23,62.67c-.61-.23-.94-.35-1.58-.35s-1.44,.24-1.44,1.11c0,1.6,3.57,1.24,3.57,3.98,0,1.77-1.37,2.48-3.05,2.48-.58,0-1.15-.16-1.7-.34l.12-1.11c.4,.17,1.12,.41,1.73,.41,.68,0,1.64-.39,1.64-1.36,0-1.87-3.59-1.34-3.59-3.94,0-1.48,1.17-2.27,2.67-2.27,.56,0,1.21,.1,1.78,.3l-.16,1.1"/>
    <path class="cls-1" d="M92.38,61.03h1.27v1.26h-1.27v-1.26Zm.07,2.62h1.12v6.09h-1.12v-6.09Z"/>
    <path class="cls-1" d="M95.63,63.66h1.08v.97h.03c.33-.68,1.15-1.11,1.98-1.11,1.59,0,2.3,.98,2.3,2.63v3.61h-1.13v-3.15c0-1.42-.31-2.12-1.29-2.19-1.28,0-1.85,1.03-1.85,2.51v2.82h-1.12v-6.09"/>
    <path class="cls-1" d="M108.31,63.66h-1.04v.91h-.02c-.33-.66-.93-1.06-2.01-1.06-1.83,0-2.72,1.68-2.72,3.25s.86,2.99,2.61,2.99c.78,0,1.56-.31,2.03-.95h.03v.61c0,1.28-.7,2.08-1.88,2.08-.82,0-1.34-.16-2.2-.54l-.12,1.03c.98,.34,1.54,.43,2.19,.43,2.18,0,3.14-1.08,3.14-2.92v-5.83m-2.9,5.19c-1.05,0-1.69-1.01-1.69-2.16,0-1.04,.56-2.27,1.69-2.27,1.2,0,1.78,1.09,1.78,2.36,0,1.14-.73,2.07-1.78,2.07"/>
    <path class="cls-1" d="M110.57,65.04c.45-.37,1.13-.62,1.76-.62,1.12,0,1.51,.55,1.51,1.6-.44-.03-.75-.03-1.2-.03-1.16,0-2.83,.48-2.83,2.01,0,1.32,.92,1.9,2.24,1.9,1.02,0,1.62-.57,1.89-.94h.02v.79h1.05c-.02-.18-.04-.5-.04-1.2v-2.52c0-1.66-.71-2.52-2.45-2.52-.77,0-1.44,.24-2,.57l.06,.95m3.27,2.34c0,.91-.59,1.61-1.7,1.61-.52,0-1.14-.35-1.14-.99,0-1.08,1.5-1.18,2.11-1.18,.25,0,.48,.02,.72,.02v.54h0Z"/>
    <path class="cls-1" d="M116.87,72.25h1.12v-3.34h.02c.35,.56,.96,.98,2.04,.98,1.83,0,2.61-1.62,2.61-3.29s-.86-3.09-2.62-3.09c-1.09,0-1.77,.56-2.07,1h-.02v-.86h-1.08v8.6m4.6-5.58c0,.96-.49,2.31-1.7,2.31s-1.79-1.26-1.79-2.27c0-1.14,.59-2.3,1.8-2.3s1.7,1.17,1.68,2.26"/>
    <path class="cls-1" d="M123.76,66.7c0,1.75,1.26,3.19,3.1,3.19s3.09-1.45,3.09-3.19c0-1.86-1.24-3.19-3.09-3.19s-3.1,1.33-3.1,3.19m1.19,0c0-1.16,.7-2.29,1.91-2.29s1.9,1.13,1.9,2.29c0,1.09-.58,2.29-1.9,2.29s-1.91-1.2-1.91-2.29"/>
    <path class="cls-1" d="M131.46,63.66h1.05v.96h.03c.3-.65,.94-1.1,1.59-1.1,.33,0,.5,.04,.75,.08v1.02c-.21-.09-.44-.12-.63-.12-1.01,0-1.66,.95-1.66,2.49v2.77h-1.12v-6.09"/>
    <path class="cls-1" d="M140.78,68.38c-.28,.23-1.15,.62-1.89,.62-1.05,0-2.01-.84-2.01-2.04h4.35c0-1.96-.65-3.44-2.69-3.44-1.71,0-2.84,1.28-2.84,3.09,0,1.98,.99,3.29,3.15,3.29,1,0,1.5-.23,1.93-.4v-1.12m-3.89-2.27c.08-.78,.55-1.69,1.63-1.69,.97,0,1.53,.78,1.53,1.69h-3.16Z"/>
    <path class="cls-1" d="M148.71,30.68c2.28,2.11,6.79,4.03,12.31,4.12,4.82,.08,8.7-1.37,8.94-5.38,.52-8.66-21.69-5.19-20.83-19.81C149.55,2.3,156.83-.13,164.65,0c4.24,.07,8.47,1.07,10.8,2.25V7.46c-2.83-1.94-6.77-3.18-10.04-3.24-4.97-.09-8.92,.82-8.99,4.45-.13,7.58,22.27,5.76,21.41,20.26-.47,8.16-8.42,10.66-16.72,10.52-4.78-.08-9.45-1.04-12.4-2.55v-6.22"/>
    <path class="cls-1" d="M127.7,39.49c-10.32,0-16.25-4.63-16.25-14.16V1.14h7.73V25.33c0,5.92,2.84,9.52,8.52,9.52s8.52-3.6,8.52-9.52V1.14h7.74V25.33c0,9.53-5.94,14.16-16.25,14.16"/>
    <path class="cls-1" d="M98.88,1.13V28.38L81.16,3.06c-.84-1.17-2.22-1.93-3.77-1.93h-5.86V38.29h5.16V11.02l17.7,25.24c.83,1.21,2.24,2.03,3.83,2.03h5.83V1.13h-5.15"/>
  </g>
</svg>